<svg width="103" height="110" viewBox="0 0 103 110" fill="none" xmlns="http://www.w3.org/2000/svg">
    <path d="M79.6672 53.3335H46.2005L46.3338 63.3335H43.0005V76.6668H46.2005L46.3338 80.0002H49.6672V83.3335H56.3338V86.6668H69.6672V83.3335H76.3338V80.0002H79.6672V76.6668H83.0005V63.3335H79.6672V53.3335Z" fill="white"/>
    <path d="M52.9998 70V73.3333H56.3332V70H52.9998Z" fill="black"/>
    <path d="M66.334 70L66.3332 73.3333H69.6673L69.6665 70H66.334Z" fill="black"/>
    <path fill-rule="evenodd" clip-rule="evenodd" d="M79.6673 63.3335L79.6665 46.6666L73.0006 46.6668V50.0002H69.6673V53.3335L52.9998 53.3333V50H49.6665V46.6666H43.0008L42.9998 63.3333L39.6665 63.3335L39.6674 76.6668L43.0008 76.6666V80H46.3341V83.3333H49.6665V86.6666H56.3341V90L66.334 90.0002V86.6668H73.0006L72.9998 83.3333L76.334 83.3335L76.3332 80.0002H79.6665V76.6668H83.0006V63.3335H79.6673ZM79.6673 63.3335L79.6665 76.6668H76.334L76.3332 80.0002H73.0006L72.9998 83.3333H66.334V86.6668H63.0007V80H64.6673V76.6666H58.0007V80.0002L59.6665 80V86.6666H56.3341V83.3333H49.6665V80H46.3341V76.6666H43.0008L42.9998 63.3333L46.3332 63.3335L46.3337 53.3333H49.6665V56.6666H52.9998V60H56.3332V56.6666H59.6665V60H63.0007V56.6666H66.334V60.0002L69.6665 60L69.6673 56.6668H73.0006V53.3335L76.334 53.3333V63.3335H79.6673Z" fill="black"/>
    <path d="M42.5005 17.5001H17.4005L17.5005 25.0001H15.0005V35.0001H17.4005L17.5005 37.5001H20.0005V40.0001H25.0005V42.5001H35.0005V40.0001H40.0005V37.5001H42.5005V35.0001H45.0005V25.0001H42.5005V17.5001Z" fill="white"/>
    <path d="M22.5 30V32.5H25V30H22.5Z" fill="black"/>
    <path d="M32.5006 30L32.5 32.5H35.0006L35 30H32.5006Z" fill="black"/>
    <path fill-rule="evenodd" clip-rule="evenodd" d="M42.5006 25.0002L42.5 12.5L37.5006 12.5002V15.0002H35.0006V17.5002L22.5 17.5V15H20V12.5H15.0007L15 25L12.5 25.0002L12.5007 35.0002L15.0007 35V37.5H17.5007V40H20V42.5H25.0007V45L32.5006 45.0001V42.5001H37.5006L37.5 40L40.0006 40.0002L40 37.5002H42.5V35.0002H45.0006V25.0002H42.5006ZM42.5006 25.0002L42.5 35.0002H40.0006L40 37.5002H37.5006L37.5 40H32.5006V42.5001H30.0006V37.5H31.2506V35H26.2506V37.5002L27.5 37.5V42.5H25.0007V40H20V37.5H17.5007V35H15.0007L15 25L17.5 25.0002L17.5004 17.5H20V20H22.5V22.5H25V20H27.5V22.5H30.0006V20H32.5006V22.5002L35 22.5L35.0006 20.0002H37.5006V17.5002L40.0006 17.5V25.0002H42.5006Z" fill="black"/>
</svg>
