<svg width="25" height="24" viewBox="0 0 25 24" fill="none" xmlns="http://www.w3.org/2000/svg">
    <rect y="0.789551" width="3.57143" height="3.19549" fill="black"/>
    <rect width="3.57143" height="3.19549" transform="matrix(1 0 0 -1 0 23.158)" fill="black"/>
    <rect x="17.8568" y="0.789551" width="3.57143" height="3.19549" fill="black"/>
    <rect width="3.57143" height="3.19549" transform="matrix(1 0 0 -1 17.8568 23.158)" fill="black"/>
    <rect x="3.57166" y="3.98511" width="3.57143" height="3.19549" fill="black"/>
    <rect width="3.57143" height="3.19549" transform="matrix(1 0 0 -1 3.57166 19.9624)" fill="black"/>
    <rect x="14.286" y="3.98511" width="3.57143" height="3.19549" fill="black"/>
    <rect width="3.57143" height="3.19549" transform="matrix(1 0 0 -1 14.286 19.9624)" fill="black"/>
    <rect x="7.14319" y="7.18066" width="3.57143" height="3.19549" fill="black"/>
    <rect width="3.57143" height="3.19549" transform="matrix(1 0 0 -1 7.14319 16.7668)" fill="black"/>
    <rect x="3.57166" y="0.789551" width="3.57143" height="3.19549" fill="black"/>
    <rect width="3.57143" height="3.19549" transform="matrix(1 0 0 -1 3.57166 23.158)" fill="black"/>
    <rect x="21.4283" y="0.789551" width="3.57143" height="3.19549" fill="black"/>
    <rect width="3.57143" height="3.19549" transform="matrix(1 0 0 -1 21.4283 23.158)" fill="black"/>
    <rect x="7.14319" y="3.98511" width="3.57143" height="3.19549" fill="black"/>
    <rect width="3.57143" height="3.19549" transform="matrix(1 0 0 -1 7.14319 19.9624)" fill="black"/>
    <rect x="17.8568" y="3.98511" width="3.57143" height="3.19549" fill="black"/>
    <rect width="3.57143" height="3.19549" transform="matrix(1 0 0 -1 17.8568 19.9624)" fill="black"/>
    <rect x="10.714" y="7.18066" width="3.57143" height="3.19549" fill="black"/>
    <rect width="3.57143" height="3.19549" transform="matrix(1 0 0 -1 10.714 16.7668)" fill="black"/>
    <rect x="9.52356" y="10.376" width="3.57143" height="3.19549" fill="black"/>
    <rect x="14.286" y="7.18066" width="3.57143" height="3.19549" fill="black"/>
    <rect width="3.57143" height="3.19549" transform="matrix(1 0 0 -1 14.286 16.7668)" fill="black"/>
    <rect x="13.0956" y="10.376" width="3.57143" height="3.19549" fill="black"/>
</svg>
