<svg width="80" height="80" viewBox="0 0 80 80" fill="none" xmlns="http://www.w3.org/2000/svg">
    <path d="M23.3327 23.3336H56.7994L56.6661 33.3336H59.9994V46.6669H56.7994L56.6661 50.0002H53.3327V53.3336H46.6661V56.6669H33.3327V53.3336H26.6661V50.0002H23.3327V46.6669H19.9994V33.3336H23.3327V23.3336Z" fill="white"/>
    <path d="M50 40V43.3334H46.6666V40H50Z" fill="black"/>
    <path d="M36.6658 40L36.6666 43.3334H33.3325L33.3333 40H36.6658Z" fill="black"/>
    <path fill-rule="evenodd" clip-rule="evenodd" d="M23.3325 33.3336L23.3333 16.6667L29.9992 16.6669V20.0002H33.3325V23.3336L50 23.3334V20H53.3333V16.6667H59.9991L60 33.3334L63.3333 33.3336L63.3324 46.6669L59.9991 46.6667V50H56.6657V53.3334H53.3333V56.6667H46.6657V60L36.6658 60.0002V56.6669H29.9992L30 53.3334L26.6658 53.3336L26.6666 50.0002H23.3333V46.6669H19.9992V33.3336H23.3325ZM23.3325 33.3336L23.3333 46.6669H26.6658L26.6666 50.0002H29.9992L30 53.3334H36.6658V56.6669H39.9992V50H38.3325V46.6667H44.9992V50.0002L43.3333 50V56.6667H46.6657V53.3334H53.3333V50H56.6657V46.6667H59.9991L60 33.3334L56.6666 33.3336L56.6661 23.3334H53.3333V26.6667H50V30H46.6666V26.6667H43.3333V30H39.9992V26.6667H36.6658V30.0002L33.3333 30L33.3325 26.6669H29.9992V23.3336L26.6658 23.3334V33.3336H23.3325Z" fill="black"/>
</svg>
