<svg width="121" height="34" viewBox="0 0 121 34" fill="none" xmlns="http://www.w3.org/2000/svg">
    <rect width="37" height="33" fill="#C0C0C0"/>
    <path d="M37 0V33H0" stroke="black" stroke-width="2"/>
    <path d="M1 32V1H36" stroke="white" stroke-width="2"/>
    <path d="M2 31H35V2" stroke="#808080" stroke-width="2"/>
    <rect x="10" y="22" width="15" height="5" fill="black"/>
    <rect x="38" width="37" height="33" fill="#C0C0C0"/>
    <path d="M75 0V33H38" stroke="black" stroke-width="2"/>
    <path d="M39 32V1H74" stroke="white" stroke-width="2"/>
    <path d="M40 31H73V2" stroke="#808080" stroke-width="2"/>
    <rect x="51" y="6" width="14" height="14" fill="black"/>
    <rect x="53" y="11" width="10" height="7" fill="#C0C0C0"/>
    <rect x="46" y="13" width="14" height="14" fill="black"/>
    <rect x="48" y="18" width="10" height="7" fill="#C0C0C0"/>
    <rect x="83" width="37" height="33" fill="#C0C0C0"/>
    <path d="M120 0V33H83" stroke="black" stroke-width="2"/>
    <path d="M84 32V1H119" stroke="white" stroke-width="2"/>
    <path d="M85 31H118V2" stroke="#808080" stroke-width="2"/>
    <rect x="92" y="8" width="2.71429" height="2.42857" fill="black"/>
    <rect width="2.71429" height="2.42857" transform="matrix(1 0 0 -1 92 25)" fill="black"/>
    <rect x="105.571" y="8" width="2.71429" height="2.42857" fill="black"/>
    <rect width="2.71429" height="2.42857" transform="matrix(1 0 0 -1 105.571 25)" fill="black"/>
    <rect x="94.7144" y="10.4286" width="2.71429" height="2.42857" fill="black"/>
    <rect width="2.71429" height="2.42857" transform="matrix(1 0 0 -1 94.7144 22.5714)" fill="black"/>
    <rect x="102.857" y="10.4286" width="2.71429" height="2.42857" fill="black"/>
    <rect width="2.71429" height="2.42857" transform="matrix(1 0 0 -1 102.857 22.5714)" fill="black"/>
    <rect x="97.4287" y="12.8572" width="2.71429" height="2.42857" fill="black"/>
    <rect width="2.71429" height="2.42857" transform="matrix(1 0 0 -1 97.4287 20.1428)" fill="black"/>
    <rect x="94.7144" y="8" width="2.71429" height="2.42857" fill="black"/>
    <rect width="2.71429" height="2.42857" transform="matrix(1 0 0 -1 94.7144 25)" fill="black"/>
    <rect x="108.286" y="8" width="2.71429" height="2.42857" fill="black"/>
    <rect width="2.71429" height="2.42857" transform="matrix(1 0 0 -1 108.286 25)" fill="black"/>
    <rect x="97.4287" y="10.4286" width="2.71429" height="2.42857" fill="black"/>
    <rect width="2.71429" height="2.42857" transform="matrix(1 0 0 -1 97.4287 22.5714)" fill="black"/>
    <rect x="105.571" y="10.4286" width="2.71429" height="2.42857" fill="black"/>
    <rect width="2.71429" height="2.42857" transform="matrix(1 0 0 -1 105.571 22.5714)" fill="black"/>
    <rect x="100.143" y="12.8572" width="2.71429" height="2.42857" fill="black"/>
    <rect width="2.71429" height="2.42857" transform="matrix(1 0 0 -1 100.143 20.1428)" fill="black"/>
    <rect x="99.2378" y="15.2858" width="2.71429" height="2.42857" fill="black"/>
    <rect x="102.857" y="12.8572" width="2.71429" height="2.42857" fill="black"/>
    <rect width="2.71429" height="2.42857" transform="matrix(1 0 0 -1 102.857 20.1428)" fill="black"/>
    <rect x="101.953" y="15.2858" width="2.71429" height="2.42857" fill="black"/>
</svg>
