<svg width="63" height="50" viewBox="0 0 63 50" fill="none" xmlns="http://www.w3.org/2000/svg">
    <path d="M50 12.5H54.1667V8.33333H50V12.5Z" fill="white"/>
    <path d="M54.1667 16.6667H58.3333V12.5H54.1667V16.6667Z" fill="white"/>
    <path d="M54.1667 37.5H58.3333V33.3333H54.1667V37.5Z" fill="white"/>
    <path d="M50 41.6667H54.1667V37.5H50V41.6667Z" fill="white"/>
    <path d="M41.6667 20.8333H45.8333V16.6667H41.6667V20.8333Z" fill="white"/>
    <path d="M41.6667 33.3333H45.8333V29.1667H41.6667V33.3333Z" fill="white"/>
    <path d="M62.5 16.6667H58.3333V33.3333H62.5V16.6667Z" fill="white"/>
    <path d="M50 20.8333H45.8333V29.1667H50V20.8333Z" fill="white"/>
    <path d="M20.8333 45.8333V50H29.1667V45.8333H20.8333Z" fill="white"/>
    <path d="M12.5 41.6667V45.8333H20.8333V41.6667H12.5Z" fill="white"/>
    <path d="M4.16667 37.5V41.6667H12.5V37.5H4.16667Z" fill="white"/>
    <path d="M4.16667 12.5H0V37.5H4.16667V12.5Z" fill="white"/>
    <path d="M12.5 12.5V8.33333H4.16667V12.5H12.5Z" fill="white"/>
    <path d="M20.8333 8.33333V4.16667H12.5V8.33333H20.8333Z" fill="white"/>
    <path d="M29.1667 4.16667V0H20.8333V4.16667H29.1667Z" fill="white"/>
    <path d="M29.1667 45.8333H33.3333V4.16667H29.1667V45.8333Z" fill="white"/>
    <path d="M4.16638 37.5001V12.5001H12.4997V8.33341H20.833V4.16675H29.1664V45.8334H20.833V41.6667H12.4997V37.5001H4.16638Z" fill="black"/>
</svg>
