<svg width="138" height="108" viewBox="0 0 138 108" fill="none" xmlns="http://www.w3.org/2000/svg">
    <rect x="131.15" y="17.884" width="5.96134" height="35.7681" fill="#F5F5F5"/>
    <rect x="119.227" y="59.6135" width="5.96135" height="23.8454" fill="#F5F5F5"/>
    <rect x="113.266" y="5.96143" width="5.96134" height="5.96134" fill="#F5F5F5"/>
    <rect x="107.304" y="11.9226" width="5.96134" height="5.96134" fill="#F5F5F5"/>
    <rect x="107.304" y="17.884" width="5.96134" height="5.96134" fill="#F5F5F5"/>
    <rect x="113.266" y="23.8455" width="5.96134" height="5.96134" fill="#F5F5F5"/>
    <rect x="71.5361" y="17.884" width="5.96135" height="11.9227" fill="#F5F5F5"/>
    <rect x="65.5748" y="5.96143" width="5.96135" height="11.9227" fill="#F5F5F5"/>
    <rect x="11.9227" y="5.96143" width="5.96135" height="11.9227" fill="#F5F5F5"/>
    <rect x="5.9613" y="17.884" width="5.96135" height="11.9227" fill="#F5F5F5"/>
    <rect x="113.266" y="47.6907" width="5.96135" height="11.9227" fill="#F5F5F5"/>
    <rect x="119.227" y="29.8066" width="5.96135" height="11.9227" fill="#F5F5F5"/>
    <rect x="125.188" y="41.7295" width="5.96135" height="17.884" transform="rotate(90 125.188 41.7295)" fill="#F5F5F5"/>
    <rect x="101.343" y="29.8066" width="5.96135" height="23.8454" transform="rotate(90 101.343 29.8066)" fill="#F5F5F5"/>
    <rect x="113.266" y="83.459" width="5.96135" height="5.96135" fill="#F5F5F5"/>
    <rect x="101.343" y="35.7681" width="5.96135" height="5.96135" fill="#F5F5F5"/>
    <rect x="59.6134" width="5.96135" height="5.96135" fill="#F5F5F5"/>
    <rect x="53.6521" y="5.96143" width="5.96135" height="5.96135" fill="#F5F5F5"/>
    <rect x="23.8453" y="5.96143" width="5.96135" height="5.96135" fill="#F5F5F5"/>
    <rect x="17.884" y="35.7681" width="5.96135" height="5.96135" fill="#F5F5F5"/>
    <rect x="35.7681" y="47.6907" width="5.96135" height="5.96135" fill="#F5F5F5"/>
    <rect x="29.8068" y="47.6907" width="5.96135" height="5.96135" fill="#F5F5F5"/>
    <rect x="41.7294" y="47.6907" width="5.96135" height="5.96135" fill="#F5F5F5"/>
    <rect x="53.6521" y="35.7681" width="5.96135" height="5.96135" fill="#F5F5F5"/>
    <rect x="17.884" width="5.96135" height="5.96135" fill="#F5F5F5"/>
    <rect x="29.8068" y="11.9226" width="23.8454" height="5.96135" fill="#F5F5F5"/>
    <rect x="107.304" y="89.4202" width="5.96135" height="5.96135" fill="#F5F5F5"/>
    <rect x="17.884" y="95.3816" width="5.96135" height="5.96135" fill="#F5F5F5"/>
    <rect x="11.9227" y="89.4202" width="5.96135" height="5.96135" fill="#F5F5F5"/>
    <rect x="11.9227" y="83.459" width="5.96135" height="5.96135" fill="#7C7C7C"/>
    <rect x="17.884" y="89.4202" width="5.96135" height="5.96135" fill="#7C7C7C"/>
    <rect x="5.9613" y="59.6135" width="5.96135" height="5.96135" fill="#7C7C7C"/>
    <rect x="47.6908" y="89.4202" width="5.96135" height="5.96135" fill="#7C7C7C"/>
    <rect x="71.5361" y="89.4202" width="5.96135" height="5.96135" fill="#7C7C7C"/>
    <rect x="101.343" y="89.4202" width="5.96135" height="5.96135" fill="#7C7C7C"/>
    <rect x="107.304" y="83.459" width="5.96135" height="5.96135" fill="#7C7C7C"/>
    <rect x="113.266" y="77.4976" width="5.96135" height="5.96135" fill="#7C7C7C"/>
    <rect x="125.188" y="41.7295" width="5.96135" height="5.96135" fill="#7C7C7C"/>
    <rect x="125.188" y="29.8066" width="5.96135" height="5.96135" fill="#7C7C7C"/>
    <rect x="71.5361" y="29.8066" width="5.96135" height="5.96135" fill="#7C7C7C"/>
    <rect x="59.6134" y="41.7295" width="5.96135" height="5.96135" fill="#7C7C7C"/>
    <rect x="11.9227" y="41.7295" width="5.96135" height="5.96135" fill="#7C7C7C"/>
    <rect x="65.5748" y="17.884" width="5.96135" height="5.96135" fill="#7C7C7C"/>
    <rect x="53.6521" y="11.9226" width="5.96135" height="5.96135" fill="#7C7C7C"/>
    <rect x="47.6908" y="17.884" width="5.96135" height="5.96135" fill="#7C7C7C"/>
    <rect x="23.8453" y="11.9226" width="5.96135" height="5.96135" fill="#7C7C7C"/>
    <rect x="17.884" y="5.96143" width="5.96135" height="5.96135" fill="#7C7C7C"/>
    <rect x="59.6134" y="5.96143" width="5.96135" height="5.96135" fill="#7C7C7C"/>
    <rect x="11.9227" y="17.884" width="5.96135" height="5.96135" fill="#7C7C7C"/>
    <rect x="5.9613" y="29.8066" width="5.96135" height="5.96135" fill="#7C7C7C"/>
    <rect x="89.4202" y="35.7681" width="5.96135" height="11.9227" fill="#7C7C7C"/>
    <rect x="77.4974" y="35.7681" width="5.96135" height="11.9227" fill="#7C7C7C"/>
    <rect x="29.8068" y="89.4202" width="11.9227" height="5.96135" fill="#7C7C7C"/>
    <rect x="29.8068" y="17.884" width="11.9227" height="5.96135" fill="#7C7C7C"/>
    <rect x="83.4587" y="89.4202" width="11.9227" height="5.96135" fill="#7C7C7C"/>
    <rect x="5.9613" y="83.459" width="5.96135" height="5.96135" fill="#F5F5F5"/>
    <rect x="11.9227" y="65.5747" width="5.96135" height="17.884" fill="#7C7C7C"/>
    <rect y="29.8066" width="5.96134" height="35.7681" fill="#F5F5F5"/>
    <rect x="5.9613" y="65.5747" width="5.96134" height="17.884" fill="#F5F5F5"/>
    <rect x="95.3815" y="101.343" width="5.96135" height="5.96135" fill="#F5F5F5"/>
    <rect x="125.188" y="53.6521" width="5.96134" height="5.96134" fill="#F5F5F5"/>
    <rect x="101.343" y="95.3816" width="5.96135" height="11.9227" fill="#F5F5F5"/>
    <rect x="95.3815" y="95.3816" width="5.96135" height="11.9227" transform="rotate(90 95.3815 95.3816)" fill="#F5F5F5"/>
    <rect x="83.4587" y="101.343" width="5.96135" height="11.9227" transform="rotate(90 83.4587 101.343)" fill="#F5F5F5"/>
    <rect x="53.6521" y="101.343" width="5.96135" height="11.9227" transform="rotate(90 53.6521 101.343)" fill="#F5F5F5"/>
    <rect x="29.8068" y="101.343" width="5.96135" height="11.9227" transform="rotate(90 29.8068 101.343)" fill="#F5F5F5"/>
    <rect x="41.7294" y="95.3816" width="5.96135" height="11.9227" transform="rotate(90 41.7294 95.3816)" fill="#F5F5F5"/>
    <rect x="77.4974" y="95.3816" width="5.96135" height="29.8067" transform="rotate(90 77.4974 95.3816)" fill="#F5F5F5"/>
    <rect x="119.227" y="11.9226" width="11.9227" height="5.96135" fill="#F5F5F5"/>
</svg>
