<svg width="220" height="69" viewBox="0 0 220 69" fill="none" xmlns="http://www.w3.org/2000/svg">
    <rect x="4" y="3" width="210" height="62" fill="#EE4266"/>
    <path fill-rule="evenodd" clip-rule="evenodd" d="M220 0V69H0V65H216V0H220Z" fill="black"/>
    <path fill-rule="evenodd" clip-rule="evenodd" d="M216 2V65H2V59H210V2H216Z" fill="#BB1134"/>
    <path fill-rule="evenodd" clip-rule="evenodd" d="M0 0H216V4H4V65H0V0Z" fill="white"/>
    <path d="M64.35 30.4309H62.6V32.1809H64.35V37.4309H62.6V39.1809H53.85V23.4309H62.6V25.1809H64.35V30.4309ZM60.85 30.4309V25.1809H57.35V30.4309H60.85ZM60.85 37.4309V32.1809H57.35V37.4309H60.85ZM72.05 26.9309H75.55V39.1809H66.8V37.4309H65.05V26.9309H68.55V37.4309H72.05V26.9309ZM74.5 42.6809H79.75V40.9309H81.5V39.1809H78V37.4309H76.25V26.9309H79.75V37.4309H83.25V26.9309H86.75V37.4309H85V40.9309H83.25V42.6809H81.5V44.4309H74.5V42.6809ZM100.4 37.4309H98.65V35.6809H102.15V37.4309H105.65V33.9309H103.9V32.1809H102.15V30.4309H100.4V28.6809H98.65V25.1809H100.4V23.4309H102.15V19.9309H105.65V23.4309H107.4V25.1809H109.15V26.9309H105.65V25.1809H102.15V28.6809H103.9V30.4309H105.65V32.1809H107.4V33.9309H109.15V37.4309H107.4V39.1809H105.65V42.6809H102.15V39.1809H100.4V37.4309ZM113.35 30.4309H116.85V23.4309H120.35V39.1809H116.85V32.1809H113.35V39.1809H109.85V23.4309H113.35V30.4309ZM122.8 25.1809H124.55V23.4309H128.05V25.1809H129.8V26.9309H131.55V39.1809H128.05V33.9309H124.55V39.1809H121.05V26.9309H122.8V25.1809ZM128.05 32.1809V26.9309H124.55V32.1809H128.05ZM141 25.1809H142.75V30.4309H141V32.1809H135.75V39.1809H132.25V23.4309H141V25.1809ZM139.25 30.4309V25.1809H135.75V30.4309H139.25ZM152.2 25.1809H153.95V30.4309H152.2V32.1809H146.95V39.1809H143.45V23.4309H152.2V25.1809ZM150.45 30.4309V25.1809H146.95V30.4309H150.45ZM156.4 30.4309H154.65V23.4309H158.15V30.4309H161.65V23.4309H165.15V30.4309H163.4V32.1809H161.65V39.1809H158.15V32.1809H156.4V30.4309Z" fill="white"/>
</svg>
