<svg width="328" height="69" viewBox="0 0 328 69" fill="none" xmlns="http://www.w3.org/2000/svg">
    <rect x="4" y="3" width="322" height="62" fill="#848484"/>
    <path d="M0 67H326V0" stroke="black" stroke-width="4"/>
    <path d="M2 62H321V2" stroke="#4D4D4D" stroke-width="6"/>
    <path d="M2 65V2H324" stroke="white" stroke-width="4"/>
    <path d="M52.3 26.1807H48.3V42.1807H44.3V26.1807H40.3V24.1807H52.3V26.1807ZM57.1 28.1807H63.1V30.1807H65.1V42.1807H61.1V30.1807H57.1V42.1807H53.1V24.1807H57.1V28.1807ZM65.9 30.1807H67.9V28.1807H75.9V30.1807H77.9V36.1807H69.9V40.1807H75.9V42.1807H67.9V40.1807H65.9V30.1807ZM73.9 34.1807V30.1807H69.9V34.1807H73.9ZM103.5 32.1807H101.5V34.1807H103.5V40.1807H101.5V42.1807H91.5V24.1807H101.5V26.1807H103.5V32.1807ZM99.5 32.1807V26.1807H95.5V32.1807H99.5ZM99.5 40.1807V34.1807H95.5V40.1807H99.5ZM112.3 26.1807H108.3V22.1807H112.3V26.1807ZM112.3 40.1807H116.3V42.1807H104.3V40.1807H108.3V30.1807H104.3V28.1807H112.3V40.1807ZM117.1 28.1807H121.1V32.1807H123.1V34.1807H121.1V42.1807H117.1V28.1807ZM129.1 28.1807V32.1807H123.1V30.1807H125.1V28.1807H129.1ZM131.9 24.1807H135.9V28.1807H141.9V30.1807H135.9V40.1807H141.9V42.1807H133.9V40.1807H131.9V30.1807H129.9V28.1807H131.9V24.1807ZM146.7 28.1807H152.7V30.1807H154.7V42.1807H150.7V30.1807H146.7V42.1807H142.7V24.1807H146.7V28.1807ZM170.3 28.1807H178.3V30.1807H180.3V40.1807H178.3V42.1807H170.3V40.1807H168.3V30.1807H170.3V28.1807ZM176.3 40.1807V30.1807H172.3V40.1807H176.3ZM183.1 26.1807H185.1V24.1807H193.1V26.1807H187.1V32.1807H193.1V34.1807H187.1V42.1807H183.1V34.1807H181.1V32.1807H183.1V26.1807ZM208.7 40.1807H206.7V38.1807H210.7V40.1807H214.7V36.1807H212.7V34.1807H210.7V32.1807H208.7V30.1807H206.7V26.1807H208.7V24.1807H210.7V20.1807H214.7V24.1807H216.7V26.1807H218.7V28.1807H214.7V26.1807H210.7V30.1807H212.7V32.1807H214.7V34.1807H216.7V36.1807H218.7V40.1807H216.7V42.1807H214.7V46.1807H210.7V42.1807H208.7V40.1807ZM223.5 32.1807H227.5V24.1807H231.5V42.1807H227.5V34.1807H223.5V42.1807H219.5V24.1807H223.5V32.1807ZM240.3 30.1807H234.3V28.1807H242.3V30.1807H244.3V42.1807H234.3V40.1807H232.3V36.1807H234.3V34.1807H240.3V30.1807ZM240.3 40.1807V36.1807H236.3V40.1807H240.3ZM255.1 30.1807H257.1V40.1807H255.1V42.1807H249.1V48.1807H245.1V28.1807H255.1V30.1807ZM253.1 40.1807V30.1807H249.1V40.1807H253.1ZM267.9 30.1807H269.9V40.1807H267.9V42.1807H261.9V48.1807H257.9V28.1807H267.9V30.1807ZM265.9 40.1807V30.1807H261.9V40.1807H265.9ZM268.7 46.1807H274.7V44.1807H276.7V42.1807H272.7V40.1807H270.7V28.1807H274.7V40.1807H278.7V28.1807H282.7V40.1807H280.7V44.1807H278.7V46.1807H276.7V48.1807H268.7V46.1807Z" fill="white"/>
</svg>
