<svg width="318" height="128" viewBox="0 0 318 128" fill="none" xmlns="http://www.w3.org/2000/svg">
    <path d="M35.5068 95.2C35.5068 95.2 35.4735 95.2 35.4068 95.2C35.3402 95.2 35.3068 95.2 35.3068 95.2C33.9068 95.1333 32.5068 95 31.1068 94.8C29.7068 94.6667 28.3402 94.3667 27.0068 93.9C26.0735 93.5667 25.1735 93.1333 24.3068 92.6C23.5068 92.0667 22.6735 91.5667 21.8068 91.1C20.7402 90.5 19.6735 89.8667 18.6068 89.2C17.6068 88.6 16.7068 87.8333 15.9068 86.9C14.3735 85.3 13.1735 83.4667 12.3068 81.4C11.5068 79.4 10.4735 77.5333 9.20684 75.8C9.20684 75.8 9.20684 75.7667 9.20684 75.7C8.6735 74.7667 8.10684 73.8667 7.50684 73C6.90684 72.1333 6.3735 71.2333 5.90684 70.3C5.3735 69.3 4.8735 68.3 4.40684 67.3C4.00684 66.2333 3.5735 65.2 3.10684 64.2C2.84017 63.5333 2.5735 62.9 2.30684 62.3C2.04017 61.7 1.84017 61.0667 1.70684 60.4C1.30684 59.0667 1.0735 57.7 1.00684 56.3C1.00684 54.8333 1.00684 53.3667 1.00684 51.9C1.0735 51.5 1.10684 51.1 1.10684 50.7C1.10684 50.3 1.10684 49.9 1.10684 49.5C1.10684 48.5667 1.10684 47.6333 1.10684 46.7C1.10684 45.7667 1.1735 44.8333 1.30684 43.9C1.3735 42.7 1.54017 41.5333 1.80684 40.4C2.0735 39.2 2.30684 38 2.50684 36.8C2.64017 36.1333 2.74017 35.4667 2.80684 34.8C2.94017 34.1333 3.0735 33.4667 3.20684 32.8C3.34017 31.8 3.54017 30.8667 3.80684 30C4.0735 29.0667 4.34017 28.1333 4.60684 27.2C4.74017 26.6 4.8735 26 5.00684 25.4C5.14017 24.8 5.30684 24.2333 5.50684 23.7C5.7735 22.9 6.10684 22.1667 6.50684 21.5C6.90684 20.7667 7.30684 20.0667 7.70684 19.4C8.24017 18.5333 8.74017 17.7 9.20684 16.9C9.6735 16.0333 10.2402 15.2 10.9068 14.4C11.3068 13.8667 11.7402 13.3667 12.2068 12.9C12.6735 12.3667 13.1402 11.8333 13.6068 11.3C14.0735 10.7 14.5068 10.1 14.9068 9.5C15.3735 8.9 15.8735 8.33334 16.4068 7.8C17.4735 6.8 18.6402 6 19.9068 5.4C21.1735 4.8 22.4068 4.13334 23.6068 3.4C24.2068 3.06667 24.8068 2.7 25.4068 2.3C26.0068 1.9 26.6402 1.6 27.3068 1.4C28.3068 1 29.3402 0.766669 30.4068 0.700003C31.5402 0.633337 32.6402 0.533336 33.7068 0.400001C33.9068 0.400001 34.3068 0.366668 34.9068 0.300002C35.4402 0.233336 35.9735 0.200003 36.5068 0.200003C37.0402 0.133338 37.5402 0.133338 38.0068 0.200003C38.4068 0.266669 38.8068 0.400003 39.2068 0.600004C39.6735 0.800002 40.0402 1.06667 40.3068 1.4C40.7735 1.93333 41.0402 2.53333 41.1068 3.2C41.2402 3.86667 41.3402 4.53333 41.4068 5.2C41.4068 5.53334 41.4068 5.8 41.4068 6C41.5402 7.66667 41.6402 9.33334 41.7068 11C41.7735 12.6667 41.8402 14.3333 41.9068 16C41.9068 16.1333 41.9068 16.3333 41.9068 16.6C41.9735 17.2667 41.9735 17.9333 41.9068 18.6C41.8402 19.2 41.5402 19.7667 41.0068 20.3C40.4735 20.9 39.7735 21.2667 38.9068 21.4C38.1068 21.4667 37.3402 21.6 36.6068 21.8C35.6735 22 34.7402 22.3 33.8068 22.7C32.8735 23.1 32.0068 23.6 31.2068 24.2C30.0068 25.1333 29.0402 26.3 28.3068 27.7C27.6402 29.1 27.1068 30.5333 26.7068 32C26.3735 33.2 26.0735 34.4333 25.8068 35.7C25.5402 36.9 25.3735 38.1333 25.3068 39.4C25.3068 39.8 25.3068 40.2333 25.3068 40.7C25.3068 41.1667 25.3068 41.6333 25.3068 42.1C25.3068 42.5 25.3068 42.9 25.3068 43.3C25.3068 43.7 25.3068 44.1 25.3068 44.5C25.3068 44.7 25.3068 44.9333 25.3068 45.2C25.3068 45.4667 25.2735 45.7 25.2068 45.9C25.2068 46.3 25.1735 46.7 25.1068 47.1C25.1068 47.5 25.1068 47.9 25.1068 48.3C25.1068 49.3667 25.1402 50.4667 25.2068 51.6C25.3402 52.6667 25.4735 53.7333 25.6068 54.8C25.6735 55.8 25.7402 56.8 25.8068 57.8C25.8735 58.7333 26.0068 59.6667 26.2068 60.6C26.8735 62.6 27.5735 64.7 28.3068 66.9C29.0402 69.1 30.0735 71 31.4068 72.6C31.4068 72.6667 31.4068 72.7 31.4068 72.7C31.9402 73.5 32.5068 74.3 33.1068 75.1C33.7735 75.8333 34.5402 76.4 35.4068 76.8C36.1402 77.1333 36.8735 77.3667 37.6068 77.5C38.3402 77.5667 38.9735 77.8667 39.5068 78.4C39.8402 78.7333 40.0735 79.1 40.2068 79.5C40.4068 79.9 40.5735 80.3 40.7068 80.7C40.7735 81.0333 40.8068 81.3667 40.8068 81.7C40.8068 82.0333 40.8068 82.3667 40.8068 82.7C40.7402 82.9667 40.7068 83.2 40.7068 83.4C40.7068 83.6667 40.7402 83.9333 40.8068 84.2C40.8068 84.7333 40.8735 85.2667 41.0068 85.8C41.1402 86.4 41.2402 87 41.3068 87.6C41.4402 88.5333 41.4402 89.6333 41.3068 90.9C41.2402 91.5667 41.1068 92.2 40.9068 92.8C40.7735 93.4 40.4068 93.9 39.8068 94.3C39.4735 94.5 39.1402 94.6 38.8068 94.6C38.4735 94.6 38.1068 94.6333 37.7068 94.7L35.5068 95.2ZM35.3068 94L37.5068 93.6C37.7735 93.5333 38.0402 93.5 38.3068 93.5C38.6402 93.5 38.9402 93.4333 39.2068 93.3C39.6068 93.0333 39.8402 92.6333 39.9068 92.1C39.9735 91.6333 40.0402 91.2 40.1068 90.8C40.2402 89.6 40.2402 88.5667 40.1068 87.7C40.0402 87.1 39.9402 86.5333 39.8068 86C39.7402 85.4667 39.6735 84.9 39.6068 84.3C39.5402 84.1 39.5068 83.8667 39.5068 83.6C39.5735 83.4 39.6068 83.1667 39.6068 82.9C39.6068 82.5667 39.6068 82.2333 39.6068 81.9C39.6068 81.5667 39.5735 81.2667 39.5068 81C39.4402 80.6667 39.3402 80.3333 39.2068 80C39.0735 79.7333 38.9068 79.5 38.7068 79.3C38.2402 78.8333 37.6402 78.5667 36.9068 78.5C36.1735 78.3667 35.5068 78.1667 34.9068 77.9C33.9068 77.4333 33.0402 76.8 32.3068 76C31.6402 75.1333 31.0068 74.2667 30.4068 73.4V73.3C30.4068 73.3 30.4068 73.3333 30.4068 73.4C29.0735 71.6667 28.0068 69.6667 27.2068 67.4C26.4735 65.1333 25.7735 63 25.1068 61C25.1068 61 25.1068 60.9667 25.1068 60.9C25.0402 60.9 25.0068 60.9 25.0068 60.9C24.8068 59.9 24.6735 58.9 24.6068 57.9C24.5402 56.9 24.4735 55.9 24.4068 54.9C24.2735 53.7667 24.1402 52.6667 24.0068 51.6C23.9402 50.5333 23.9068 49.4333 23.9068 48.3C23.9068 47.9 23.9068 47.5 23.9068 47.1C23.9735 46.7 24.0068 46.3 24.0068 45.9C24.0735 45.6333 24.1068 45.4 24.1068 45.2C24.1068 44.9333 24.1068 44.6667 24.1068 44.4C24.1068 44 24.1068 43.6 24.1068 43.2C24.1068 42.8 24.1068 42.4 24.1068 42C24.1068 41.5333 24.1068 41.1 24.1068 40.7C24.1068 40.2333 24.1068 39.7667 24.1068 39.3C24.1735 38.0333 24.3402 36.7667 24.6068 35.5C24.8735 34.1667 25.1735 32.9 25.5068 31.7C25.9735 30.1 26.5735 28.5333 27.3068 27C28.1068 25.4667 29.1735 24.2 30.5068 23.2C31.3735 22.5333 32.3068 22 33.3068 21.6C34.3068 21.2 35.3068 20.8667 36.3068 20.6C36.9068 20.4667 37.5735 20.3667 38.3068 20.3C39.1068 20.2333 39.7068 19.9667 40.1068 19.5C40.5068 19.1 40.7068 18.6667 40.7068 18.2C40.7735 17.6667 40.7735 17.1333 40.7068 16.6C40.7068 16.3333 40.7068 16.1333 40.7068 16C40.7068 14.3333 40.6402 12.6667 40.5068 11C40.4402 9.33334 40.3402 7.66667 40.2068 6C40.2068 5.86667 40.2068 5.63334 40.2068 5.3C40.2068 4.7 40.1735 4.13334 40.1068 3.6C40.0402 3.06667 39.8068 2.6 39.4068 2.2C39.2068 1.93333 38.9402 1.76667 38.6068 1.7C38.3402 1.56667 38.0402 1.46667 37.7068 1.4C37.3735 1.33333 36.9402 1.33333 36.4068 1.4C35.8735 1.4 35.3735 1.43333 34.9068 1.5C34.3735 1.56667 34.0068 1.6 33.8068 1.6C32.7402 1.73333 31.6735 1.83334 30.6068 1.90001C29.6068 1.96667 28.6402 2.16667 27.7068 2.5C27.0402 2.7 26.4402 3 25.9068 3.4C25.3735 3.73334 24.8068 4.06667 24.2068 4.4C23.0735 5.13333 21.8735 5.8 20.6068 6.4C19.3402 7 18.2068 7.76667 17.2068 8.7C16.7402 9.16667 16.2735 9.7 15.8068 10.3C15.4068 10.9 14.9735 11.4667 14.5068 12C14.1068 12.5333 13.6402 13.0667 13.1068 13.6C12.6402 14.0667 12.2068 14.5667 11.8068 15.1C11.2068 15.9 10.6735 16.7333 10.2068 17.6C9.74017 18.4 9.2735 19.2 8.80684 20C8.40684 20.6667 8.00684 21.3333 7.60684 22C7.20684 22.6667 6.8735 23.3667 6.60684 24.1C6.40684 24.6333 6.24017 25.2 6.10684 25.8C6.04017 26.3333 5.90684 26.9 5.70684 27.5C5.50684 28.3667 5.2735 29.2667 5.00684 30.2C4.74017 31.1333 4.50684 32.0667 4.30684 33C4.24017 33.6667 4.14017 34.3333 4.00684 35C3.94017 35.6667 3.84017 36.3333 3.70684 37C3.50684 38.2 3.2735 39.4 3.00684 40.6C2.74017 41.7333 2.5735 42.8667 2.50684 44C2.3735 44.9333 2.30684 45.8333 2.30684 46.7C2.30684 47.5667 2.30684 48.4333 2.30684 49.3V49.5C2.30684 49.9 2.30684 50.3 2.30684 50.7C2.30684 51.1 2.2735 51.5 2.20684 51.9C2.20684 53.3 2.20684 54.7 2.20684 56.1C2.2735 57.5 2.50684 58.8333 2.90684 60.1C3.04017 60.7667 3.20684 61.4 3.40684 62C3.6735 62.5333 3.94017 63.1 4.20684 63.7C4.6735 64.7 5.10684 65.7 5.50684 66.7C5.90684 67.7 6.3735 68.7 6.90684 69.7C7.44017 70.6333 8.00684 71.5333 8.60684 72.4C9.20684 73.2667 9.74017 74.1667 10.2068 75.1C11.4068 76.8333 12.4402 78.7 13.3068 80.7C14.1735 82.7 15.3402 84.5 16.8068 86.1C17.6068 86.9667 18.4735 87.7 19.4068 88.3C20.4068 88.9 21.4068 89.5 22.4068 90.1C23.2068 90.5667 24.0068 91.0333 24.8068 91.5C25.6068 92.0333 26.4735 92.4667 27.4068 92.8C28.6735 93.2 29.9735 93.4667 31.3068 93.6C32.6402 93.8 33.9735 93.9333 35.3068 94Z" fill="white"/>
    <path d="M54.7725 78.8C54.7058 78.8 54.6058 78.7333 54.4725 78.6C54.2725 78.4667 54.1725 78.3667 54.1725 78.3C54.0391 77.9 53.8725 77.5333 53.6725 77.2C53.4725 76.8 53.3058 76.4 53.1725 76C53.1058 75.6667 53.0391 75.3 52.9725 74.9C52.9725 74.5 52.9725 74.1 52.9725 73.7C52.8391 72.7667 52.7058 71.8667 52.5725 71C52.5058 70.0667 52.4391 69.1333 52.3725 68.2C52.3725 67.8667 52.3725 67.5 52.3725 67.1C52.3725 66.7 52.3725 66.3333 52.3725 66C52.3725 65.4667 52.3725 64.9667 52.3725 64.5C52.3725 63.9667 52.3391 63.4333 52.2725 62.9C52.1391 61.9667 51.9058 61.0333 51.5725 60.1C51.3058 59.1667 51.1391 58.2333 51.0725 57.3C50.9391 56.5 50.8725 55.7333 50.8725 55C50.9391 54.2 51.0058 53.4 51.0725 52.6C51.0725 52.2667 51.0725 51.9333 51.0725 51.6C51.1391 51.2667 51.1725 50.9333 51.1725 50.6C51.1725 50.2 51.1725 49.8 51.1725 49.4C51.1725 48.9333 51.1725 48.5 51.1725 48.1C51.1725 47.5 51.1725 46.9 51.1725 46.3C51.1725 45.7 51.2058 45.1 51.2725 44.5C51.3391 43.5 51.4725 42.5333 51.6725 41.6C51.8725 40.6 52.0391 39.6 52.1725 38.6C52.1725 38.5333 52.1725 38.5 52.1725 38.5C52.4391 37.3 52.5725 36.0667 52.5725 34.8C52.5725 33.5333 52.5391 32.2667 52.4725 31C52.4725 30 52.4391 29 52.3725 28C52.3725 27 52.4391 26 52.5725 25C52.7058 23.0667 52.7725 21.1333 52.7725 19.2C52.8391 17.2667 52.9058 15.3333 52.9725 13.4C52.9725 13.2667 52.9725 13.0333 52.9725 12.7C52.9725 12.0333 53.0058 11.3667 53.0725 10.7C53.2058 10.0333 53.5058 9.43333 53.9725 8.9C54.5058 8.36667 55.0725 8.06667 55.6725 8C56.3391 7.93334 56.9725 7.93334 57.5725 8C57.8391 8 58.0391 8 58.1725 8C59.8391 8.06667 61.5058 8.03334 63.1725 7.90001C64.9058 7.76667 66.6058 7.56667 68.2725 7.3C69.4058 7.16667 70.5391 7.06667 71.6725 7.00001C72.8725 6.93334 74.0391 6.86667 75.1725 6.8C75.4391 6.8 75.7058 6.8 75.9725 6.8C76.2391 6.73334 76.5058 6.7 76.7725 6.7C77.5725 6.63334 78.3391 6.6 79.0725 6.6C79.8058 6.53333 80.5391 6.5 81.2725 6.5C82.2725 6.5 83.2725 6.6 84.2725 6.8C85.2725 6.93334 86.2725 7.06667 87.2725 7.2C87.2725 7.2 87.3058 7.2 87.3725 7.2C89.5058 7.73334 91.7391 8.2 94.0725 8.6C96.4725 9 98.6391 9.76667 100.572 10.9C101.506 11.3 102.406 11.7667 103.272 12.3C104.139 12.7667 105.006 13.2667 105.872 13.8C106.806 14.3333 107.706 14.8667 108.572 15.4C109.506 15.9333 110.372 16.5667 111.172 17.3C112.372 18.5 113.372 19.9 114.172 21.5C114.972 23.1 115.672 24.7333 116.272 26.4C116.872 27.6 117.239 29.2 117.372 31.2C117.572 33.2 117.506 35.2 117.172 37.2C116.906 39.2 116.339 40.7667 115.472 41.9C115.006 42.8333 114.439 43.7333 113.772 44.6C113.172 45.4667 112.539 46.3333 111.872 47.2C111.206 48.1333 110.539 49.0333 109.872 49.9C109.272 50.7667 108.572 51.6 107.772 52.4C107.639 52.4667 107.372 52.6333 106.972 52.9C106.572 53.1 106.372 53.2333 106.372 53.3C106.372 53.3 106.539 53.5333 106.872 54C107.072 54.3333 107.206 54.5333 107.272 54.6C107.339 54.9333 107.439 55.2667 107.572 55.6C107.706 55.9333 107.806 56.2667 107.872 56.6C108.139 57.2667 108.372 57.9 108.572 58.5C108.839 59.0333 109.106 59.5667 109.372 60.1C109.706 60.7 110.072 61.3 110.472 61.9C110.872 62.4333 111.206 63 111.472 63.6C112.072 64.7333 112.606 65.8667 113.072 67C113.539 68.1333 114.139 69.2333 114.872 70.3C115.339 70.9667 115.806 71.6667 116.272 72.4C116.739 73.1333 117.206 73.8333 117.672 74.5C117.872 74.5667 118.006 74.7 118.072 74.9C118.139 75.0333 118.239 75.1667 118.372 75.3C118.506 75.5667 118.606 75.8333 118.672 76.1C118.806 76.3667 118.706 76.6333 118.372 76.9C117.972 77.3 117.606 77.7333 117.272 78.2C116.939 78.6667 116.506 79.0333 115.972 79.3C115.706 79.4333 115.439 79.5 115.172 79.5C114.972 79.5 114.739 79.4667 114.472 79.4C114.139 79.4 113.906 79.4 113.772 79.4C113.172 79.4 112.539 79.4 111.872 79.4C111.272 79.4 110.672 79.4 110.072 79.4C110.006 79.4 109.972 79.4 109.972 79.4C109.772 79.4 109.439 79.4 108.972 79.4C107.106 79.4667 105.206 79.5333 103.272 79.6C101.339 79.6667 99.4391 79.6667 97.5725 79.6C97.4391 79.6 97.3058 79.6 97.1725 79.6C96.3725 79.6 95.5725 79.5667 94.7725 79.5C94.0391 79.4333 93.3058 79.1333 92.5725 78.6C91.5725 77.9333 90.8725 77.0667 90.4725 76C90.1391 74.9333 89.7058 73.9 89.1725 72.9C88.7058 71.9667 88.2391 71.0333 87.7725 70.1C87.3058 69.1667 86.8391 68.2333 86.3725 67.3C85.8391 66.0333 85.3058 64.7667 84.7725 63.5C84.3058 62.1667 83.7725 60.9 83.1725 59.7C82.9725 59.3 82.7391 58.9 82.4725 58.5C82.2725 58.1 82.0391 57.7 81.7725 57.3C81.7725 57.3 81.7058 57.3333 81.5725 57.4C81.3725 57.5333 81.2058 57.6333 81.0725 57.7C80.8725 57.7667 80.6391 57.8333 80.3725 57.9C80.1725 57.9667 79.9725 58 79.7725 58C79.6391 58.0667 79.4058 58.1 79.0725 58.1C79.0725 58.2333 79.1058 58.4667 79.1725 58.8C79.2391 59.0667 79.2725 59.2667 79.2725 59.4C79.2725 59.6667 79.2725 59.9667 79.2725 60.3C79.2725 60.6333 79.2391 60.9333 79.1725 61.2C79.1725 61.8 79.1391 62.4 79.0725 63C79.0058 63.5333 78.9391 64.1 78.8725 64.7C78.8725 65.1 78.8725 65.5333 78.8725 66C78.9391 66.4 79.0058 66.8333 79.0725 67.3C79.0725 67.7667 79.0725 68.2667 79.0725 68.8C79.1391 69.2667 79.1725 69.7333 79.1725 70.2C79.1058 70.8667 79.0391 71.5667 78.9725 72.3C78.9058 72.9667 78.8391 73.6333 78.7725 74.3C78.7725 74.5667 78.7725 74.9667 78.7725 75.5C78.7725 76.1 78.7391 76.7 78.6725 77.3C78.6725 77.9 78.4725 78.4667 78.0725 79C77.8058 79.3333 77.4725 79.5667 77.0725 79.7C76.7391 79.9 76.3725 80.0333 75.9725 80.1C75.5058 80.2333 75.0058 80.2667 74.4725 80.2C73.9391 80.1333 73.4058 80.1 72.8725 80.1C72.3391 80.0333 71.9725 79.9667 71.7725 79.9C70.0391 79.7667 68.3058 79.6667 66.5725 79.6C64.9058 79.6 63.2391 79.5333 61.5725 79.4C60.5058 79.3333 59.4391 79.2333 58.3725 79.1C57.3725 78.9667 56.3725 78.8667 55.3725 78.8C55.3058 78.8 55.2725 78.8 55.2725 78.8H54.7725ZM55.4725 77.6C56.4725 77.6667 57.4725 77.7667 58.4725 77.9C59.5391 78.0333 60.6058 78.1333 61.6725 78.2C63.3391 78.3333 65.0058 78.4333 66.6725 78.5C68.4058 78.5 70.1391 78.5667 71.8725 78.7C72.0725 78.7667 72.4391 78.8333 72.9725 78.9C73.4391 78.9667 73.9058 79 74.3725 79C74.8391 79.0667 75.2725 79.0667 75.6725 79C75.9391 78.9333 76.2058 78.8333 76.4725 78.7C76.7391 78.6333 76.9391 78.4667 77.0725 78.2C77.4058 77.8667 77.5725 77.4333 77.5725 76.9C77.6391 76.3667 77.6391 75.8333 77.5725 75.3C77.5725 74.8333 77.5725 74.4667 77.5725 74.2C77.6391 73.5333 77.7058 72.8667 77.7725 72.2C77.8391 71.5333 77.9058 70.8333 77.9725 70.1C77.9725 69.6333 77.9391 69.1667 77.8725 68.7C77.8725 68.1667 77.8725 67.6667 77.8725 67.2C77.8058 66.8 77.7391 66.4 77.6725 66C77.6725 65.5333 77.6725 65.1 77.6725 64.7C77.7391 64.1 77.8058 63.5 77.8725 62.9C77.9391 62.3 77.9725 61.7333 77.9725 61.2C78.0391 60.8667 78.0725 60.5667 78.0725 60.3C78.0725 59.9667 78.0725 59.6667 78.0725 59.4C78.0725 59.2 78.0391 58.9333 77.9725 58.6C77.9058 58.4 77.8725 58.2 77.8725 58C77.8725 57.7333 77.9391 57.4667 78.0725 57.2C78.2058 56.9333 78.5058 56.8333 78.9725 56.9C79.2391 56.9 79.4058 56.9 79.4725 56.9C79.7391 56.8333 79.9725 56.7667 80.1725 56.7C80.3725 56.6333 80.5725 56.5667 80.7725 56.5C80.9058 56.5 81.0725 56.4333 81.2725 56.3C81.7391 56.0333 82.1391 55.9667 82.4725 56.1C82.4725 56.1 82.5058 56.1333 82.5725 56.2C82.5725 56.2667 82.5725 56.3 82.5725 56.3C82.9058 56.7667 83.2058 57.2333 83.4725 57.7C83.7391 58.1667 84.0058 58.6667 84.2725 59.2C84.8725 60.4 85.4058 61.6667 85.8725 63C86.4058 64.2667 86.9391 65.5333 87.4725 66.8C87.9391 67.7333 88.4058 68.6667 88.8725 69.6C89.3391 70.5333 89.8058 71.4667 90.2725 72.4C90.6725 73.2667 91.0391 74.2333 91.3725 75.3C91.7725 76.3 92.4058 77.0667 93.2725 77.6C93.8058 78 94.4058 78.2333 95.0725 78.3C95.7391 78.3667 96.4058 78.4 97.0725 78.4C97.2725 78.4 97.4391 78.4 97.5725 78.4C99.4391 78.4667 101.306 78.4667 103.172 78.4C105.106 78.3333 107.039 78.2667 108.972 78.2C109.106 78.2 109.272 78.2 109.472 78.2C109.672 78.2 109.839 78.2 109.972 78.2C110.639 78.2 111.272 78.2 111.872 78.2C112.472 78.2 113.106 78.2 113.772 78.2C113.906 78.2 114.106 78.2 114.372 78.2C114.906 78.3333 115.272 78.3333 115.472 78.2C115.872 78 116.206 77.7 116.472 77.3C116.806 76.9 117.139 76.5 117.472 76.1C117.406 76.0333 117.339 75.9667 117.272 75.9C117.272 75.7667 117.239 75.6667 117.172 75.6C117.039 75.6 116.972 75.5667 116.972 75.5C116.439 74.7667 115.906 74.0333 115.372 73.3C114.906 72.5 114.406 71.7333 113.872 71C113.139 69.9333 112.539 68.8 112.072 67.6C111.606 66.4 111.072 65.2667 110.472 64.2C110.139 63.6 109.772 63.0333 109.372 62.5C109.039 61.9 108.706 61.3 108.372 60.7C108.039 60.1 107.739 59.5 107.472 58.9C107.272 58.3 107.039 57.6667 106.772 57C106.639 56.7333 106.506 56.4333 106.372 56.1C106.306 55.7667 106.206 55.4333 106.072 55.1C106.006 54.9 105.872 54.6667 105.672 54.4C105.539 54.2 105.406 54 105.272 53.8C105.206 53.5333 105.206 53.2667 105.272 53C105.339 52.5333 105.539 52.2333 105.872 52.1C106.272 51.9667 106.606 51.7667 106.872 51.5C107.672 50.7667 108.372 49.9667 108.972 49.1C109.639 48.2333 110.306 47.3667 110.972 46.5C111.572 45.7 112.172 44.8667 112.772 44C113.439 43.1333 114.006 42.2333 114.472 41.3C114.472 41.3 114.472 41.2667 114.472 41.2C115.272 40.2 115.806 38.7667 116.072 36.9C116.339 35.0333 116.372 33.1667 116.172 31.3C116.039 29.4333 115.706 27.9667 115.172 26.9C115.172 26.9 115.172 26.8667 115.172 26.8C115.106 26.8 115.072 26.8 115.072 26.8C114.606 25.2667 113.972 23.7333 113.172 22.2C112.439 20.6667 111.472 19.3333 110.272 18.2C109.539 17.4667 108.739 16.8667 107.872 16.4C107.006 15.8667 106.139 15.3333 105.272 14.8C104.406 14.2667 103.539 13.7667 102.672 13.3C101.806 12.7667 100.939 12.3333 100.072 12C100.072 12 100.039 12 99.9725 12C99.9725 11.9333 99.9725 11.9 99.9725 11.9C98.1058 10.8333 96.0058 10.1333 93.6725 9.8C91.4058 9.4 89.2058 8.93334 87.0725 8.40001C86.1391 8.26667 85.1725 8.13334 84.1725 8C83.2391 7.8 82.2725 7.7 81.2725 7.7C80.5391 7.7 79.8058 7.73334 79.0725 7.8C78.3391 7.8 77.6058 7.83334 76.8725 7.90001C76.6058 7.90001 76.3391 7.93334 76.0725 8C75.8058 8 75.5391 8 75.2725 8C74.1391 8.06667 72.9725 8.13334 71.7725 8.2C70.6391 8.26667 69.5058 8.36667 68.3725 8.5C66.7058 8.76667 65.0058 8.96667 63.2725 9.1C61.5391 9.23334 59.8391 9.26667 58.1725 9.2C58.0391 9.2 57.8391 9.2 57.5725 9.2C57.1058 9.13334 56.6058 9.13334 56.0725 9.2C55.6058 9.2 55.2058 9.4 54.8725 9.8C54.5391 10.1333 54.3391 10.5667 54.2725 11.1C54.2058 11.6333 54.1725 12.1667 54.1725 12.7C54.1725 13.0333 54.1725 13.2667 54.1725 13.4C54.1058 15.3333 54.0391 17.3 53.9725 19.3C53.9725 21.2333 53.9058 23.1667 53.7725 25.1C53.6391 26.1 53.5725 27.1333 53.5725 28.2C53.6391 29.2 53.6725 30.2 53.6725 31.2C53.7391 32.4667 53.7391 33.7333 53.6725 35C53.6725 36.2667 53.5725 37.5 53.3725 38.7C53.2391 39.7 53.0725 40.7 52.8725 41.7C52.6725 42.6333 52.5391 43.6 52.4725 44.6C52.4058 45.2 52.3725 45.8 52.3725 46.4C52.3725 47 52.3725 47.6 52.3725 48.2C52.3725 48.6 52.3725 49 52.3725 49.4C52.3725 49.8 52.3725 50.2 52.3725 50.6C52.3725 50.9333 52.3391 51.2667 52.2725 51.6C52.2725 51.9333 52.2725 52.2667 52.2725 52.6C52.2058 53.3333 52.1391 54.1 52.0725 54.9C52.0725 55.6333 52.1058 56.3667 52.1725 57.1C52.3058 58.0333 52.5058 58.9667 52.7725 59.9C53.1058 60.8333 53.3391 61.7667 53.4725 62.7C53.5391 63.2333 53.5725 63.7667 53.5725 64.3C53.5725 64.8333 53.5725 65.3667 53.5725 65.9C53.5725 66.2333 53.5725 66.6 53.5725 67C53.5725 67.4 53.5725 67.7667 53.5725 68.1C53.6391 69.0333 53.7058 69.9667 53.7725 70.9C53.9058 71.7667 54.0391 72.6667 54.1725 73.6C54.1725 73.9333 54.1725 74.3 54.1725 74.7C54.1725 75.0333 54.2391 75.3667 54.3725 75.7C54.5058 76.3667 54.8725 77 55.4725 77.6ZM80.0725 39.6C80.0725 39.6 80.0058 39.5667 79.8725 39.5C79.8058 39.5 79.7725 39.4667 79.7725 39.4L77.8725 37.4C77.8725 37.4 77.8391 37.3667 77.7725 37.3C77.7725 37.1667 77.7725 37.1 77.7725 37.1C78.0391 35.9667 78.3391 34.8667 78.6725 33.8C79.0058 32.7333 79.2391 31.6333 79.3725 30.5C79.5058 30.0333 79.5725 29.5 79.5725 28.9C79.5725 28.7667 79.5725 28.5667 79.5725 28.3C79.5058 28.0333 79.4725 27.8 79.4725 27.6C79.4725 27.4 79.5725 27.2 79.7725 27C79.9725 26.8 80.1725 26.7 80.3725 26.7C80.6391 26.7 80.9058 26.7 81.1725 26.7C81.5058 26.7667 81.7391 26.8 81.8725 26.8C82.1391 26.8 82.4058 26.8 82.6725 26.8C83.0058 26.7333 83.3391 26.7 83.6725 26.7C84.6725 26.6333 85.7058 26.6333 86.7725 26.7C87.9058 26.7 88.8725 27.0667 89.6725 27.8C90.6725 28.6 91.2391 29.6667 91.3725 31C91.5725 32.2667 91.4058 33.5 90.8725 34.7C90.4058 35.9 89.6391 36.8333 88.5725 37.5C88.1725 37.7667 87.7058 38 87.1725 38.2C86.7058 38.3333 86.2391 38.4667 85.7725 38.6C84.8391 38.8667 83.8725 39.0667 82.8725 39.2C81.9391 39.3333 81.0058 39.4667 80.0725 39.6ZM80.3725 38.3C81.1725 38.2333 82.0058 38.1333 82.8725 38C83.7391 37.8667 84.6058 37.6667 85.4725 37.4C85.8725 37.2667 86.2725 37.1667 86.6725 37.1C87.1391 36.9667 87.5725 36.7667 87.9725 36.5C89.1725 35.7 89.9058 34.4667 90.1725 32.8C90.5058 31.0667 90.0725 29.7 88.8725 28.7C88.2058 28.1667 87.4058 27.9 86.4725 27.9C85.6058 27.8333 84.7725 27.8 83.9725 27.8C83.8391 27.8667 83.7391 27.9 83.6725 27.9C83.4058 27.9 83.1058 27.9333 82.7725 28C82.5058 28 82.2391 28 81.9725 28C81.8391 28 81.6391 27.9667 81.3725 27.9C80.9725 27.7667 80.7058 27.7667 80.5725 27.9C80.5725 27.9 80.6058 28.0333 80.6725 28.3C80.7391 28.6333 80.7725 28.8667 80.7725 29C80.7058 29.6 80.6391 30.1667 80.5725 30.7C80.4391 31.7667 80.2058 32.8333 79.8725 33.9C79.6058 34.9 79.3391 35.9 79.0725 36.9L80.3725 38.3Z" fill="white"/>
    <path d="M147.857 80.4C146.19 80.5333 144.49 80.5667 142.757 80.5C141.09 80.5 139.457 80.2667 137.857 79.8C136.524 79.4 135.257 78.8667 134.057 78.2C132.924 77.4667 131.757 76.7333 130.557 76C129.557 75.3333 128.59 74.6333 127.657 73.9C126.79 73.1667 126.023 72.2667 125.357 71.2C124.157 69.5333 123.324 67.6333 122.857 65.5C122.39 63.3 121.957 61.2 121.557 59.2C121.424 58.1333 121.324 57.0667 121.257 56C121.19 54.8667 121.19 53.7667 121.257 52.7C121.257 52.5667 121.257 52.4333 121.257 52.3C121.324 52.1667 121.39 52.0333 121.457 51.9C121.99 48.8333 122.557 45.7333 123.157 42.6C123.424 41.4 123.69 40.2333 123.957 39.1C124.224 37.9667 124.59 36.8667 125.057 35.8C125.457 34.8 125.957 33.8667 126.557 33C127.224 32.0667 127.924 31.1667 128.657 30.3C129.124 29.7667 129.59 29.2667 130.057 28.8C130.59 28.3333 131.157 27.9333 131.757 27.6C132.69 27.0667 133.657 26.6667 134.657 26.4C135.723 26.1333 136.79 25.9333 137.857 25.8C138.59 25.7333 139.29 25.6667 139.957 25.6C140.69 25.4667 141.423 25.4 142.157 25.4C144.423 25.2 146.79 25.2333 149.257 25.5C151.723 25.7667 154.09 26.0667 156.357 26.4C157.09 26.4667 157.824 26.5333 158.557 26.6C159.357 26.6 160.124 26.6667 160.857 26.8C161.99 26.9333 163.09 27.2 164.157 27.6C165.29 27.9333 166.39 28.3 167.457 28.7C168.057 28.9667 168.657 29.2667 169.257 29.6C169.857 29.8667 170.424 30.2 170.957 30.6C171.757 31.2 172.424 31.9 172.957 32.7C173.49 33.5 173.99 34.3 174.457 35.1C174.857 35.7 175.224 36.3 175.557 36.9C175.957 37.5 176.324 38.1 176.657 38.7C177.324 40.0333 177.824 41.4 178.157 42.8C178.49 44.2 178.69 45.6333 178.757 47.1C178.89 48.3667 178.957 49.6333 178.957 50.9C178.957 52.1667 178.924 53.4333 178.857 54.7C178.857 55.2333 178.857 55.6 178.857 55.8C178.857 55.9333 178.857 56.0667 178.857 56.2C178.857 56.8667 178.79 57.5333 178.657 58.2C178.59 58.8 178.257 59.3333 177.657 59.8C177.324 60.0667 176.957 60.2667 176.557 60.4C176.157 60.4667 175.757 60.5 175.357 60.5C174.49 60.6333 173.657 60.6333 172.857 60.5C172.057 60.3 171.29 60.1 170.557 59.9C170.157 59.7667 169.757 59.6667 169.357 59.6C169.024 59.4667 168.657 59.3667 168.257 59.3C167.457 59.1667 166.624 59.1333 165.757 59.2C164.89 59.2 164.024 59.2333 163.157 59.3C162.757 59.3667 162.357 59.4333 161.957 59.5C161.557 59.5 161.124 59.5 160.657 59.5C160.257 59.5 159.857 59.5 159.457 59.5C159.057 59.4333 158.657 59.4 158.257 59.4C157.924 59.4 157.59 59.4 157.257 59.4C156.99 59.4 156.69 59.3667 156.357 59.3C155.824 59.3 155.257 59.3333 154.657 59.4C154.057 59.4 153.49 59.4333 152.957 59.5C152.423 59.5 151.923 59.5333 151.457 59.6C150.99 59.6 150.523 59.6 150.057 59.6C149.324 59.6 148.624 59.5667 147.957 59.5C147.824 59.5 147.59 59.5 147.257 59.5C147.19 59.5 147.124 59.5 147.057 59.5C147.057 59.7 147.057 59.9333 147.057 60.2C147.124 60.4 147.19 60.6333 147.257 60.9C147.39 61.5 147.557 62.1 147.757 62.7C148.023 63.2333 148.424 63.7 148.957 64.1C149.09 64.2333 149.29 64.3667 149.557 64.5C149.824 64.6333 150.057 64.7 150.257 64.7C150.723 64.6333 151.157 64.4333 151.557 64.1C152.024 63.7 152.457 63.4333 152.857 63.3C153.457 63.0333 154.024 62.8 154.557 62.6C155.157 62.4 155.757 62.2333 156.357 62.1C156.624 62.1 156.857 62.1333 157.057 62.2C157.324 62.2 157.557 62.2 157.757 62.2C158.09 62.2667 158.324 62.3333 158.457 62.4C159.59 62.5333 160.69 62.5667 161.757 62.5C163.09 62.4333 164.424 62.2667 165.757 62C167.09 61.6667 168.424 61.4333 169.757 61.3C170.357 61.2333 170.924 61.2 171.457 61.2C172.057 61.2 172.657 61.2 173.257 61.2C173.324 61.2 173.39 61.2 173.457 61.2C174.657 61.2 175.59 61.3333 176.257 61.6C176.99 61.8 177.69 62.5 178.357 63.7C178.557 64.1 178.624 64.4667 178.557 64.8C178.49 65.1333 178.424 65.5 178.357 65.9C178.29 66.0333 178.257 66.1333 178.257 66.2C177.857 67.5333 177.124 68.7333 176.057 69.8C175.057 70.8 174.057 71.7333 173.057 72.6C171.924 73.6667 170.757 74.7 169.557 75.7C168.357 76.6333 167.057 77.4667 165.657 78.2C164.457 79.0667 162.924 79.6667 161.057 80C159.257 80.3333 157.39 80.5 155.457 80.5C153.59 80.5667 151.923 80.5667 150.457 80.5L147.857 80.4ZM147.757 79.2L150.557 79.3C151.89 79.3667 153.457 79.3667 155.257 79.3C157.124 79.3 158.924 79.1333 160.657 78.8C162.457 78.5333 163.89 78 164.957 77.2C164.957 77.2 164.957 77.1667 164.957 77.1C165.023 77.1 165.057 77.1 165.057 77.1C166.39 76.4333 167.657 75.6333 168.857 74.7C170.057 73.7 171.19 72.7 172.257 71.7C173.19 70.9 174.124 70.0333 175.057 69.1C176.057 68.1667 176.723 67.1 177.057 65.9C177.057 65.8333 177.09 65.7333 177.157 65.6C177.224 65.4 177.29 65.2 177.357 65C177.424 64.7333 177.39 64.5 177.257 64.3C176.79 63.3667 176.29 62.8333 175.757 62.7C175.29 62.5 174.624 62.4 173.757 62.4C173.624 62.4 173.523 62.4 173.457 62.4C173.324 62.4 173.224 62.4 173.157 62.4C172.624 62.4 172.09 62.4 171.557 62.4C171.023 62.4 170.49 62.4333 169.957 62.5C168.557 62.6333 167.19 62.8667 165.857 63.2C164.524 63.4667 163.19 63.6333 161.857 63.7C160.724 63.7667 159.557 63.7333 158.357 63.6C158.224 63.5333 157.99 63.4667 157.657 63.4C157.19 63.2667 156.824 63.2333 156.557 63.3C156.024 63.3667 155.49 63.5 154.957 63.7C154.424 63.9 153.89 64.1333 153.357 64.4C152.824 64.6 152.324 64.8667 151.857 65.2C151.457 65.5333 150.99 65.7667 150.457 65.9C149.99 65.9667 149.557 65.9 149.157 65.7C148.824 65.5 148.49 65.3 148.157 65.1C147.557 64.5667 147.09 63.9667 146.757 63.3C146.49 62.6333 146.257 61.9333 146.057 61.2C145.99 60.8 145.924 60.4333 145.857 60.1C145.857 59.7667 145.857 59.4333 145.857 59.1C145.857 59.1 145.824 59.0667 145.757 59C145.757 58.9333 145.724 58.8 145.657 58.6C145.59 58.4 145.724 58.3 146.057 58.3C146.257 58.2333 146.457 58.2333 146.657 58.3C146.857 58.3 147.057 58.3 147.257 58.3C147.59 58.3 147.824 58.3 147.957 58.3C148.624 58.3667 149.29 58.4 149.957 58.4C150.49 58.4 150.99 58.4 151.457 58.4C151.923 58.3333 152.423 58.3 152.957 58.3C153.49 58.2333 154.057 58.2 154.657 58.2C155.257 58.1333 155.824 58.1 156.357 58.1C156.69 58.1667 156.99 58.2 157.257 58.2C157.59 58.2 157.924 58.2 158.257 58.2C158.657 58.2 159.057 58.2333 159.457 58.3C159.857 58.3 160.257 58.3 160.657 58.3C161.057 58.3 161.457 58.3 161.857 58.3C162.324 58.2333 162.757 58.1667 163.157 58.1C164.09 58.0333 164.99 58 165.857 58C166.724 57.9333 167.624 57.9667 168.557 58.1C168.89 58.1667 169.224 58.2667 169.557 58.4C169.957 58.4667 170.324 58.5667 170.657 58.7C171.39 58.9 172.124 59.1 172.857 59.3C173.657 59.4333 174.457 59.4333 175.257 59.3C175.523 59.3 175.79 59.3 176.057 59.3C176.39 59.2333 176.69 59.1 176.957 58.9C177.29 58.5667 177.49 58.1667 177.557 57.7C177.624 57.2333 177.657 56.7667 177.657 56.3C177.657 56.1 177.657 55.9333 177.657 55.8C177.657 55.6 177.657 55.4 177.657 55.2C177.657 55 177.657 54.8333 177.657 54.7C177.724 53.4333 177.757 52.2 177.757 51C177.757 49.7333 177.69 48.4667 177.557 47.2C177.49 45.8667 177.29 44.5333 176.957 43.2C176.69 41.8 176.224 40.5 175.557 39.3C175.29 38.7 174.957 38.1 174.557 37.5C174.224 36.9 173.857 36.3333 173.457 35.8C172.99 35 172.49 34.2333 171.957 33.5C171.49 32.7667 170.924 32.1333 170.257 31.6C169.723 31.2 169.19 30.8667 168.657 30.6C168.124 30.3333 167.557 30.0667 166.957 29.8C165.957 29.4 164.924 29.0333 163.857 28.7C162.79 28.3667 161.724 28.1333 160.657 28C159.924 27.8667 159.157 27.7667 158.357 27.7C157.624 27.6333 156.89 27.5667 156.157 27.5C153.957 27.2333 151.623 26.9667 149.157 26.7C146.757 26.4333 144.457 26.4 142.257 26.6C141.523 26.6 140.79 26.6667 140.057 26.8C139.39 26.8667 138.724 26.9333 138.057 27C137.057 27.1333 136.057 27.3333 135.057 27.6C134.124 27.8 133.224 28.1333 132.357 28.6C131.824 28.9333 131.324 29.3333 130.857 29.8C130.39 30.2 129.957 30.6333 129.557 31.1C128.89 31.9 128.257 32.7333 127.657 33.6C127.057 34.4667 126.557 35.3667 126.157 36.3C125.69 37.3667 125.324 38.4333 125.057 39.5C124.79 40.5667 124.557 41.6667 124.357 42.8C123.69 45.9333 123.124 49.0333 122.657 52.1C122.59 52.2333 122.523 52.3667 122.457 52.5C122.457 52.5667 122.457 52.6667 122.457 52.8C122.39 53.8667 122.39 54.9333 122.457 56C122.523 57 122.624 58 122.757 59C123.09 60.8667 123.49 62.8667 123.957 65C124.424 67.1333 125.224 69 126.357 70.6C126.957 71.5333 127.69 72.3667 128.557 73.1C129.424 73.7667 130.324 74.4 131.257 75C132.324 75.6667 133.424 76.3667 134.557 77.1C135.757 77.7667 136.99 78.3 138.257 78.7C139.723 79.1667 141.29 79.4 142.957 79.4C144.624 79.4 146.223 79.3333 147.757 79.2ZM148.557 46.1C148.49 46.1 148.457 46.1 148.457 46.1C148.39 46.1 148.357 46.1 148.357 46.1L146.557 45.6C146.557 45.6 146.523 45.5667 146.457 45.5C146.39 45.5 146.357 45.4667 146.357 45.4C146.024 44.8667 145.857 44.4 145.857 44C145.857 43.6 145.89 43.1 145.957 42.5C145.957 42.4333 145.99 42.3667 146.057 42.3C146.257 41.0333 146.723 39.9333 147.457 39C148.257 38 149.324 37.5333 150.657 37.6C152.057 37.6 152.924 38.1333 153.257 39.2C153.657 40.2667 153.89 41.3333 153.957 42.4C154.023 42.8 154.057 43.2 154.057 43.6C154.057 44 154.057 44.4 154.057 44.8C154.057 44.8 154.09 44.8667 154.157 45C154.224 45.2667 154.157 45.4333 153.957 45.5C153.624 45.5667 153.29 45.6 152.957 45.6C152.69 45.6 152.39 45.6333 152.057 45.7C151.457 45.7667 150.857 45.8333 150.257 45.9C149.657 45.9667 149.09 46.0333 148.557 46.1ZM148.557 44.9C149.09 44.8333 149.624 44.7667 150.157 44.7C150.757 44.6333 151.357 44.5667 151.957 44.5C152.09 44.5 152.224 44.5 152.357 44.5C152.557 44.4333 152.724 44.4 152.857 44.4C152.857 44.0667 152.857 43.7667 152.857 43.5C152.857 43.1667 152.824 42.8333 152.757 42.5C152.69 41.7667 152.557 40.9667 152.357 40.1C152.157 39.2333 151.59 38.8 150.657 38.8C149.657 38.8 148.857 39.2 148.257 40C147.724 40.7333 147.357 41.5333 147.157 42.4C147.157 42.5333 147.157 42.7 147.157 42.9C147.09 43.2333 147.057 43.5333 147.057 43.8C147.057 44 147.124 44.2667 147.257 44.6L148.557 44.9Z" fill="white"/>
    <path d="M200.062 80.3C200.062 80.3 200.028 80.3 199.962 80.3C198.162 79.9667 196.295 79.6333 194.362 79.3C192.495 79.0333 190.795 78.3667 189.262 77.3C188.262 76.7 187.428 75.9333 186.762 75C186.095 74 185.495 73 184.962 72C184.362 70.8 183.795 69.5667 183.262 68.3C182.795 67.0333 182.495 65.7 182.362 64.3C182.228 63.2333 182.295 62.1667 182.562 61.1C182.828 60.0333 183.128 58.9667 183.462 57.9C183.862 56.8333 184.295 55.7667 184.762 54.7C185.228 53.6333 185.862 52.7 186.662 51.9C187.595 50.9 188.662 50.1333 189.862 49.6C191.062 49 192.328 48.6 193.662 48.4C194.262 48.3333 194.862 48.3 195.462 48.3C196.062 48.3 196.662 48.2667 197.262 48.2C197.862 48.1333 198.462 48.0667 199.062 48C199.728 47.8667 200.395 47.7333 201.062 47.6C201.995 47.4667 202.928 47.3667 203.862 47.3C204.795 47.2333 205.728 47.1 206.662 46.9C207.262 46.7667 207.828 46.6 208.362 46.4C208.962 46.1333 209.528 45.8667 210.062 45.6C210.728 45.3333 211.362 45.0667 211.962 44.8C212.562 44.5333 213.195 44.3 213.862 44.1C214.128 44.0333 214.395 43.9667 214.662 43.9C214.928 43.8333 215.162 43.7667 215.362 43.7C215.362 43.6333 215.362 43.6 215.362 43.6C215.428 43.2667 215.462 42.9333 215.462 42.6C215.528 42.2667 215.528 41.9333 215.462 41.6C215.462 41.3333 215.428 41.0333 215.362 40.7C215.362 40.3667 215.262 40.1 215.062 39.9C214.728 39.5 214.128 39.3667 213.262 39.5C212.462 39.6333 211.862 39.8333 211.462 40.1C211.062 40.2333 210.695 40.5 210.362 40.9C210.095 41.2333 209.762 41.5 209.362 41.7C208.362 42.3 207.262 42.7667 206.062 43.1C205.395 43.3667 204.695 43.5333 203.962 43.6C203.295 43.6 202.595 43.6333 201.862 43.7C200.328 43.9 198.795 44.1333 197.262 44.4C195.795 44.6 194.262 44.7333 192.662 44.8C191.195 44.8 189.828 44.6667 188.562 44.4C187.362 44.1333 186.395 43.2333 185.662 41.7C185.395 41.1 185.428 40.3 185.762 39.3C186.162 38.2333 186.495 37.4 186.762 36.8C187.028 36.1333 187.362 35.5 187.762 34.9C188.162 34.2333 188.595 33.6 189.062 33C189.728 32.1333 190.428 31.2667 191.162 30.4C191.962 29.5333 192.862 28.7667 193.862 28.1C195.328 27.1 196.962 26.4667 198.762 26.2C200.628 25.8667 202.428 25.6667 204.162 25.6C205.295 25.6 206.395 25.6667 207.462 25.8C208.528 25.8667 209.628 25.9333 210.762 26C211.162 26.0667 211.528 26.1333 211.862 26.2C212.262 26.2 212.662 26.2333 213.062 26.3C214.462 26.4333 215.862 26.5667 217.262 26.7C218.662 26.8333 220.028 27 221.362 27.2C223.162 27.5333 224.995 27.8333 226.862 28.1C228.728 28.3667 230.495 28.9 232.162 29.7C233.095 30.1 233.995 30.5667 234.862 31.1C235.795 31.6333 236.562 32.3 237.162 33.1C237.495 33.5667 237.762 34.0667 237.962 34.6C238.162 35.1333 238.362 35.7 238.562 36.3C239.228 36.9667 239.528 37.5 239.462 37.9C239.462 38.2333 239.395 38.5667 239.262 38.9C239.128 39.1 239.028 39.3333 238.962 39.6C238.962 39.8667 239.162 40.2333 239.562 40.7C239.562 40.7 239.595 40.7333 239.662 40.8C239.728 40.9333 239.762 41 239.762 41C240.428 43.2667 240.895 45.4667 241.162 47.6C241.162 47.6667 241.195 47.7667 241.262 47.9C241.328 48.5 241.395 49.1 241.462 49.7C241.528 50.3 241.528 50.9 241.462 51.5C241.395 52.1667 241.262 52.8333 241.062 53.5C240.862 54.1 240.662 54.7333 240.462 55.4C240.195 56.2667 239.928 57.1333 239.662 58C239.462 58.8667 239.395 59.7333 239.462 60.6C239.528 61.6 239.628 62.5667 239.762 63.5C239.895 64.4333 240.062 65.3667 240.262 66.3C240.395 66.9 240.528 67.5333 240.662 68.2C240.795 68.8 240.895 69.4 240.962 70C240.962 70.5333 240.928 71.0667 240.862 71.6C240.862 72.1333 240.828 72.6333 240.762 73.1C240.695 73.3 240.662 73.4667 240.662 73.6C240.528 74.4 240.395 75.1667 240.262 75.9C240.128 76.6333 239.795 77.3333 239.262 78C238.795 78.6667 238.162 79.1 237.362 79.3C236.628 79.5667 235.895 79.7667 235.162 79.9C234.228 80.0333 233.328 80.0667 232.462 80C231.595 79.9333 230.728 79.8333 229.862 79.7C229.462 79.7 229.062 79.6667 228.662 79.6C228.328 79.5333 227.962 79.5 227.562 79.5C226.495 79.4333 225.395 79.3333 224.262 79.2C223.195 79.1333 222.128 79 221.062 78.8C220.662 78.7333 220.262 78.7 219.862 78.7C219.528 78.6333 219.195 78.5667 218.862 78.5C217.795 78.1 217.062 77.6667 216.662 77.2C216.328 76.6667 216.028 75.8667 215.762 74.8C215.695 74.6 215.662 74.4333 215.662 74.3C215.662 74.1 215.662 73.9 215.662 73.7C215.528 73.8333 215.462 73.9333 215.462 74C214.995 74.6 214.528 75.1667 214.062 75.7C213.595 76.2333 213.095 76.7667 212.562 77.3C211.295 78.3667 209.862 79.1333 208.262 79.6C206.728 80.0667 205.195 80.4333 203.662 80.7C203.662 80.7 203.628 80.7 203.562 80.7C203.495 80.7 203.428 80.7 203.362 80.7L200.062 80.3ZM200.162 79.1L203.462 79.5C204.928 79.2333 206.395 78.9 207.862 78.5C209.328 78.0333 210.628 77.3 211.762 76.3C212.228 75.9 212.695 75.4333 213.162 74.9C213.628 74.3667 214.062 73.8333 214.462 73.3C214.728 72.9667 214.962 72.6 215.162 72.2C215.362 71.7333 215.695 71.4333 216.162 71.3C216.562 71.1667 216.762 71.2667 216.762 71.6C216.828 71.9333 216.862 72.2333 216.862 72.5C216.795 72.7667 216.762 72.9333 216.762 73C216.828 73.2667 216.862 73.5333 216.862 73.8C216.862 74.0667 216.895 74.3 216.962 74.5C217.162 75.4333 217.362 76.0667 217.562 76.4C217.828 76.7333 218.395 77.0333 219.262 77.3C219.595 77.4333 219.928 77.5333 220.262 77.6C220.595 77.6 220.895 77.6 221.162 77.6C222.228 77.8 223.295 77.9667 224.362 78.1C225.495 78.1667 226.595 78.2333 227.662 78.3C227.995 78.3 228.362 78.3333 228.762 78.4C229.162 78.4667 229.528 78.5 229.862 78.5C230.728 78.6333 231.562 78.7333 232.362 78.8C233.228 78.8667 234.095 78.8333 234.962 78.7C235.562 78.6333 236.162 78.5 236.762 78.3C237.428 78.1 237.962 77.7333 238.362 77.2C238.828 76.6667 239.095 76.0667 239.162 75.4C239.295 74.7333 239.395 74.0667 239.462 73.4C239.462 73.3333 239.495 73.1667 239.562 72.9C239.628 72.4333 239.662 71.9667 239.662 71.5C239.728 71.0333 239.762 70.5667 239.762 70.1C239.762 69.5 239.662 68.9 239.462 68.3C239.328 67.7 239.195 67.1 239.062 66.5C238.928 65.5667 238.762 64.6333 238.562 63.7C238.428 62.7 238.328 61.7 238.262 60.7C238.195 59.7667 238.262 58.8667 238.462 58C238.728 57.0667 238.995 56.1667 239.262 55.3C239.462 54.6333 239.662 54 239.862 53.4C240.062 52.7333 240.195 52.0667 240.262 51.4C240.328 50.8 240.328 50.2667 240.262 49.8C240.195 49.2667 240.128 48.7333 240.062 48.2C239.995 48 239.962 47.8333 239.962 47.7C239.695 45.7 239.262 43.6 238.662 41.4C237.995 40.7333 237.662 40.2333 237.662 39.9C237.728 39.5667 237.828 39.2667 237.962 39C238.162 38.7333 238.262 38.4667 238.262 38.2C238.328 37.8667 238.095 37.4667 237.562 37C237.562 37 237.528 36.9667 237.462 36.9C237.462 36.8333 237.462 36.8 237.462 36.8C237.328 36.2667 237.162 35.7667 236.962 35.3C236.762 34.7667 236.495 34.2667 236.162 33.8C235.628 33.0667 234.962 32.4667 234.162 32C233.362 31.5333 232.528 31.1 231.662 30.7C230.062 29.9667 228.328 29.5 226.462 29.3C224.662 29.0333 222.895 28.7333 221.162 28.4C219.828 28.2 218.462 28.0333 217.062 27.9C215.728 27.7667 214.362 27.6333 212.962 27.5C212.562 27.4333 212.162 27.4 211.762 27.4C211.428 27.3333 211.062 27.2667 210.662 27.2C209.595 27.1333 208.528 27.0667 207.462 27C206.395 26.8667 205.295 26.8 204.162 26.8C202.562 26.8667 200.895 27.0333 199.162 27.3C197.428 27.5667 195.862 28.1667 194.462 29.1C193.595 29.7 192.795 30.4333 192.062 31.3C191.328 32.1 190.662 32.9333 190.062 33.8C189.595 34.3333 189.162 34.9 188.762 35.5C188.428 36.1 188.128 36.7 187.862 37.3C187.662 37.7 187.395 38.3667 187.062 39.3C186.728 40.1667 186.628 40.8 186.762 41.2C187.295 42.4 188.062 43.1 189.062 43.3C190.062 43.5 191.095 43.6 192.162 43.6C192.428 43.6 192.595 43.6 192.662 43.6C194.195 43.5333 195.695 43.4 197.162 43.2C198.695 42.9333 200.228 42.7 201.762 42.5C202.428 42.4333 203.095 42.4 203.762 42.4C204.428 42.3333 205.062 42.2 205.662 42C206.795 41.6667 207.828 41.2333 208.762 40.7C209.162 40.4333 209.495 40.1333 209.762 39.8C210.095 39.4667 210.462 39.2 210.862 39C211.595 38.6667 212.462 38.4333 213.462 38.3C214.528 38.1667 215.362 38.4333 215.962 39.1C216.295 39.4333 216.462 39.8333 216.462 40.3C216.528 40.7 216.595 41.1 216.662 41.5C216.728 41.9 216.728 42.3 216.662 42.7C216.662 43.0333 216.628 43.4 216.562 43.8C216.562 43.9333 216.562 44.0333 216.562 44.1C216.562 44.4333 216.428 44.6333 216.162 44.7C215.828 44.8333 215.495 44.9333 215.162 45C214.828 45.0667 214.528 45.1667 214.262 45.3C213.595 45.5 212.962 45.7333 212.362 46C211.762 46.2 211.162 46.4333 210.562 46.7C209.962 46.9667 209.362 47.2333 208.762 47.5C208.162 47.7 207.528 47.9 206.862 48.1C205.928 48.3 204.995 48.4333 204.062 48.5C203.128 48.5667 202.162 48.6667 201.162 48.8C200.562 48.9333 199.928 49.0667 199.262 49.2C198.595 49.2667 197.962 49.3333 197.362 49.4C196.762 49.4667 196.162 49.5 195.562 49.5C194.962 49.5 194.362 49.5333 193.762 49.6C192.628 49.8 191.495 50.1333 190.362 50.6C189.295 51.0667 188.362 51.7667 187.562 52.7C186.828 53.5 186.228 54.4 185.762 55.4C185.362 56.3333 184.962 57.3 184.562 58.3C184.228 59.2333 183.928 60.2 183.662 61.2C183.462 62.2 183.428 63.2 183.562 64.2C183.695 65.4667 183.995 66.7333 184.462 68C184.928 69.2 185.462 70.3667 186.062 71.5C186.528 72.4333 187.062 73.3333 187.662 74.2C188.262 75 188.995 75.7 189.862 76.3C191.395 77.3667 193.062 78.0333 194.862 78.3C196.662 78.5667 198.428 78.8333 200.162 79.1ZM211.862 65.2C211.862 65.2 211.828 65.2 211.762 65.2C211.695 65.2 211.662 65.2 211.662 65.2H210.162C209.695 65.0667 209.228 65 208.762 65C208.295 65 207.895 64.8667 207.562 64.6C206.762 64 206.328 63.3 206.262 62.5C206.262 61.7 206.595 60.9667 207.262 60.3C207.528 60.0333 207.795 59.8333 208.062 59.7C208.395 59.5 208.728 59.3667 209.062 59.3C209.595 59.1 210.095 59 210.562 59C211.095 58.9333 211.628 58.8667 212.162 58.8C212.628 58.8 213.095 58.7667 213.562 58.7C214.028 58.6333 214.495 58.5 214.962 58.3C214.962 58.2333 214.962 58.1667 214.962 58.1C215.028 57.5 215.262 57.2667 215.662 57.4C216.128 57.4667 216.462 57.7 216.662 58.1C216.928 58.4333 216.795 58.7333 216.262 59C216.195 59.0667 216.128 59.1 216.062 59.1C216.062 59.2333 216.062 59.4 216.062 59.6C215.995 60.0667 215.928 60.5333 215.862 61C215.862 61.4667 215.728 61.9333 215.462 62.4C214.995 63.2667 214.462 63.8667 213.862 64.2C213.328 64.4667 212.662 64.8 211.862 65.2ZM214.862 59.6C214.128 59.8 213.262 59.9333 212.262 60C211.728 60.0667 211.228 60.1 210.762 60.1C210.362 60.1 209.928 60.2 209.462 60.4C209.262 60.4667 209.028 60.5667 208.762 60.7C208.495 60.7667 208.262 60.9 208.062 61.1C207.128 62.0333 207.195 62.8667 208.262 63.6C208.462 63.8 208.762 63.9 209.162 63.9C209.628 63.9 209.995 63.9333 210.262 64H211.462C212.128 63.7333 212.695 63.5 213.162 63.3C213.628 63.0333 214.028 62.5667 214.362 61.9C214.562 61.5 214.695 61.1333 214.762 60.8C214.828 60.4 214.862 60 214.862 59.6Z" fill="white"/>
    <path d="M248.469 79.3C248.402 79.3 248.302 79.2333 248.169 79.1C247.969 79.0333 247.869 78.9667 247.869 78.9C247.669 78.6333 247.469 78.3667 247.269 78.1C247.069 77.7667 246.902 77.4333 246.769 77.1C246.635 76.7667 246.535 76.4333 246.469 76.1C246.469 75.7667 246.469 75.4 246.469 75C246.335 73.9333 246.235 72.8333 246.169 71.7C246.169 70.5667 246.169 69.4333 246.169 68.3C246.169 67.7 246.135 67.0667 246.069 66.4C246.069 65.7333 246.069 65.0667 246.069 64.4C246.002 63.3333 245.935 62.3 245.869 61.3C245.869 60.2333 245.935 59.2 246.069 58.2C246.202 57.4 246.369 56.6667 246.569 56C246.769 55.2667 246.935 54.5333 247.069 53.8C247.602 51.7333 247.902 49.7333 247.969 47.8C248.035 47 248.002 46.1667 247.869 45.3C247.802 44.4333 247.702 43.6 247.569 42.8C247.435 42.2 247.335 41.6333 247.269 41.1C247.202 40.5 247.135 39.9 247.069 39.3C247.069 38.7 247.069 38.1 247.069 37.5C247.135 36.8333 247.169 36.2 247.169 35.6C247.235 35.2 247.269 34.8333 247.269 34.5C247.335 34.1 247.369 33.7 247.369 33.3C247.369 33.0333 247.369 32.8 247.369 32.6C247.369 32.3333 247.369 32.1 247.369 31.9C247.369 31.4333 247.369 30.9667 247.369 30.5C247.369 30.0333 247.402 29.5667 247.469 29.1C247.535 28.0333 247.702 27 247.969 26C248.302 25 248.602 23.9667 248.869 22.9C249.135 21.8333 249.335 20.7667 249.469 19.7C249.602 18.5667 249.635 17.4667 249.569 16.4C249.502 15.8667 249.435 15.3667 249.369 14.9C249.302 14.3667 249.202 13.8333 249.069 13.3C249.002 12.9667 248.902 12.6333 248.769 12.3C248.702 11.9667 248.669 11.6 248.669 11.2C248.669 10.8 248.702 10.4 248.769 10C248.835 9.53334 248.969 9.13334 249.169 8.8C249.435 8.46667 249.735 8.23333 250.069 8.1C250.469 7.9 250.869 7.76667 251.269 7.7C251.669 7.56667 252.069 7.5 252.469 7.5C252.869 7.5 253.235 7.53334 253.569 7.6C253.769 7.6 253.969 7.6 254.169 7.6C254.435 7.6 254.669 7.6 254.869 7.6C256.002 7.6 257.135 7.6 258.269 7.6C259.469 7.6 260.635 7.53334 261.769 7.4C262.369 7.4 262.935 7.36667 263.469 7.3C264.002 7.23334 264.569 7.2 265.169 7.2C266.035 7.2 266.835 7.26667 267.569 7.4C268.369 7.46667 269.102 7.8 269.769 8.40001C270.502 8.93334 270.969 9.6 271.169 10.4C271.369 11.1333 271.535 11.9 271.669 12.7C272.069 14.5667 272.335 16.5333 272.469 18.6C272.669 20.6 272.735 22.5333 272.669 24.4C272.602 25.8 272.535 27.2 272.469 28.6C272.402 29.9333 272.335 31.3 272.269 32.7C272.269 33.1 272.269 33.5 272.269 33.9C272.269 34.2333 272.269 34.6 272.269 35C272.269 35.6667 272.269 36.3 272.269 36.9C272.269 37.5 272.235 38.1 272.169 38.7C272.035 39.6333 271.802 40.5333 271.469 41.4C271.202 42.2667 271.035 43.1667 270.969 44.1C270.902 44.7 270.869 45.3333 270.869 46C270.935 46.6 271.002 47.2 271.069 47.8C271.135 48.2667 271.169 48.7333 271.169 49.2C271.235 49.6667 271.269 50.1333 271.269 50.6C271.202 50.8667 271.169 51.1333 271.169 51.4C271.169 51.6667 271.135 51.9333 271.069 52.2C271.069 52.5333 271.035 52.8667 270.969 53.2C270.969 53.5333 270.969 53.8667 270.969 54.2C271.035 55.2 271.235 56.2 271.569 57.2C271.969 58.1333 272.269 59.1 272.469 60.1C272.602 60.9 272.669 61.7 272.669 62.5C272.669 63.3 272.635 64.1 272.569 64.9C272.569 65.3667 272.569 65.7 272.569 65.9C272.502 66.7667 272.469 67.6333 272.469 68.5C272.469 69.3667 272.402 70.2667 272.269 71.2C272.202 71.4667 272.135 71.7667 272.069 72.1C272.069 72.3667 272.069 72.6333 272.069 72.9C271.935 73.7 271.835 74.5 271.769 75.3C271.702 76.1 271.402 76.8 270.869 77.4C270.135 78.2667 269.302 78.7 268.369 78.7C267.435 78.7667 266.502 78.7667 265.569 78.7C265.235 78.7 264.902 78.7 264.569 78.7C264.235 78.6333 263.935 78.6 263.669 78.6C263.002 78.6 262.335 78.6333 261.669 78.7C261.069 78.7667 260.469 78.8333 259.869 78.9C258.402 79.0333 256.935 79.1333 255.469 79.2C254.002 79.2667 252.535 79.3667 251.069 79.5C251.069 79.5 251.035 79.5 250.969 79.5L248.469 79.3ZM248.769 78.1L250.969 78.3C252.435 78.1667 253.902 78.0667 255.369 78C256.835 77.9333 258.302 77.8333 259.769 77.7C260.369 77.6333 261.002 77.5667 261.669 77.5C262.335 77.4333 263.002 77.4 263.669 77.4C263.935 77.4 264.202 77.4333 264.469 77.5C264.735 77.5 265.035 77.5 265.369 77.5C266.169 77.6333 267.002 77.7 267.869 77.7C268.735 77.6333 269.435 77.3 269.969 76.7C270.369 76.1667 270.602 75.5667 270.669 74.9C270.735 74.1667 270.802 73.4667 270.869 72.8C270.869 72.4667 270.869 72.1667 270.869 71.9C270.935 71.5667 271.002 71.2667 271.069 71C271.202 70.1333 271.269 69.2667 271.269 68.4C271.269 67.5333 271.302 66.6667 271.369 65.8C271.369 65.6 271.369 65.2667 271.369 64.8C271.435 64.0667 271.469 63.3333 271.469 62.6C271.469 61.8 271.402 61.0333 271.269 60.3C271.069 59.3 270.769 58.3333 270.369 57.4C270.035 56.4 269.835 55.3667 269.769 54.3C269.769 53.9667 269.769 53.6333 269.769 53.3C269.835 52.9 269.869 52.5333 269.869 52.2C269.935 51.9333 269.969 51.6667 269.969 51.4C269.969 51.1333 270.002 50.8667 270.069 50.6C270.069 50.1333 270.035 49.6667 269.969 49.2C269.969 48.7333 269.935 48.2333 269.869 47.7C269.802 47.1 269.735 46.5 269.669 45.9C269.669 45.2333 269.702 44.6 269.769 44C269.835 43.0667 270.002 42.1667 270.269 41.3C270.602 40.4333 270.835 39.5333 270.969 38.6C271.035 38 271.069 37.4 271.069 36.8C271.069 36.2 271.069 35.5667 271.069 34.9C271.069 34.5667 271.069 34.2 271.069 33.8C271.069 33.4 271.069 33 271.069 32.6C271.135 31.2667 271.202 29.9333 271.269 28.6C271.335 27.2 271.402 25.8 271.469 24.4C271.535 22.5333 271.469 20.6333 271.269 18.7C271.135 16.7 270.869 14.8 270.469 13C270.335 12.2667 270.202 11.6 270.069 11C269.935 10.3333 269.602 9.76667 269.069 9.3C268.535 8.83334 267.935 8.56667 267.269 8.5C266.669 8.43334 266.035 8.40001 265.369 8.40001C265.302 8.40001 265.235 8.40001 265.169 8.40001C264.635 8.40001 264.102 8.43334 263.569 8.5C263.035 8.56667 262.469 8.6 261.869 8.6C260.735 8.73333 259.569 8.8 258.369 8.8C257.169 8.8 256.002 8.8 254.869 8.8C254.602 8.8 254.202 8.8 253.669 8.8C253.335 8.73333 252.969 8.7 252.569 8.7C252.235 8.7 251.902 8.73333 251.569 8.8C251.302 8.86667 251.035 8.96667 250.769 9.1C250.502 9.16667 250.302 9.3 250.169 9.5C250.035 9.7 249.935 9.96667 249.869 10.3C249.869 10.5667 249.869 10.8333 249.869 11.1C249.869 11.1667 249.869 11.2 249.869 11.2C249.869 11.5333 249.902 11.8667 249.969 12.2C250.102 12.4667 250.202 12.7333 250.269 13C250.335 13.6 250.402 14.1667 250.469 14.7C250.602 15.2333 250.702 15.7667 250.769 16.3C250.835 17.5 250.802 18.6667 250.669 19.8C250.535 20.9333 250.335 22.0667 250.069 23.2C249.802 24.2 249.502 25.2 249.169 26.2C248.902 27.2 248.735 28.2 248.669 29.2C248.602 29.6667 248.569 30.1333 248.569 30.6C248.569 31 248.569 31.4333 248.569 31.9C248.569 32.1 248.569 32.3333 248.569 32.6C248.569 32.8 248.569 33.0333 248.569 33.3C248.569 33.7 248.535 34.1 248.469 34.5C248.469 34.8333 248.435 35.2 248.369 35.6C248.369 36.2 248.335 36.8 248.269 37.4C248.269 38 248.269 38.6 248.269 39.2C248.335 39.8 248.402 40.4 248.469 41C248.535 41.6 248.635 42.2 248.769 42.8C248.902 43.6 249.002 44.4333 249.069 45.3C249.202 46.1667 249.235 47.0333 249.169 47.9C249.102 49.9 248.802 51.9667 248.269 54.1C248.135 54.8333 247.935 55.5333 247.669 56.2C247.469 56.8667 247.335 57.5667 247.269 58.3C247.135 59.3 247.069 60.3333 247.069 61.4C247.135 62.4 247.202 63.4 247.269 64.4C247.269 65.0667 247.269 65.7333 247.269 66.4C247.335 67.0667 247.369 67.7333 247.369 68.4C247.369 69.4667 247.369 70.5667 247.369 71.7C247.435 72.7667 247.535 73.8333 247.669 74.9C247.669 75.1667 247.669 75.4667 247.669 75.8C247.669 76.0667 247.735 76.3667 247.869 76.7C247.935 76.9667 248.069 77.2333 248.269 77.5C248.469 77.7 248.635 77.9 248.769 78.1Z" fill="white"/>
    <path d="M278.693 94.9C278.693 94.9 278.626 94.8667 278.493 94.8C278.359 94.6667 278.293 94.5667 278.293 94.5C278.093 94.2333 277.893 93.9333 277.693 93.6C277.559 93.3333 277.459 93 277.393 92.6C277.326 92.4 277.293 92.2 277.293 92C277.293 91.8 277.293 91.6 277.293 91.4C277.359 91.1333 277.393 90.9 277.393 90.7C277.393 90.4333 277.359 90.1333 277.293 89.8C277.293 89.5333 277.293 89.2333 277.293 88.9C277.226 88.4333 277.126 87.9333 276.993 87.4C276.926 86.9333 276.826 86.4667 276.693 86C276.493 85.1333 276.326 84.3 276.193 83.5C276.059 82.7 276.026 81.8667 276.093 81C276.093 80.2667 276.159 79.5 276.293 78.7C276.493 77.9667 276.859 77.3 277.393 76.7C277.926 76.1 278.559 75.7 279.293 75.5C280.093 75.3 280.859 75.0667 281.593 74.8C282.326 74.5333 283.059 74.2667 283.793 74C284.593 73.6667 285.326 73.3 285.993 72.9C286.326 72.7 286.659 72.5 286.993 72.3C287.326 72.1 287.659 71.9 287.993 71.7C288.659 71.1 289.226 70.4 289.693 69.6C290.159 68.7333 290.593 67.9 290.993 67.1C291.259 66.3667 291.526 65.6333 291.793 64.9C292.059 64.1 292.226 63.3 292.293 62.5C292.493 61.1 292.593 59.7 292.593 58.3C292.659 56.8333 292.793 55.4 292.993 54C293.259 52.3333 293.559 50.7333 293.893 49.2C294.026 48.5333 294.159 47.9 294.293 47.3C294.426 46.7 294.493 46.0667 294.493 45.4C294.493 44.6 294.393 43.8 294.193 43C294.059 42.1333 293.893 41.3 293.693 40.5C293.559 39.9667 293.426 39.4667 293.293 39C293.159 38.4667 293.059 37.9333 292.993 37.4C292.726 35.8 292.559 34.2 292.493 32.6C292.426 30.9333 292.026 29.3667 291.293 27.9C290.559 26.4333 289.493 25.1333 288.093 24C286.693 22.8 285.259 21.8667 283.793 21.2C283.793 21.2 283.759 21.1667 283.693 21.1C283.226 20.7667 282.859 20.6 282.593 20.6C282.326 20.5333 282.059 20.5 281.793 20.5C281.526 20.5667 281.226 20.6 280.893 20.6C280.626 20.5333 280.226 20.3667 279.693 20.1C279.293 19.9667 278.926 19.8333 278.593 19.7C278.259 19.5 277.959 19.2333 277.693 18.9C277.426 18.5667 277.259 18.2 277.193 17.8C277.126 17.4 277.093 17 277.093 16.6C277.093 16.2 277.159 15.8667 277.293 15.6C277.426 15.2667 277.526 14.9 277.593 14.5C277.659 14.2333 277.726 13.9667 277.793 13.7C277.859 13.3667 277.926 13.0333 277.993 12.7C278.193 11.5 278.393 10.3 278.593 9.1C278.859 7.9 279.093 6.73334 279.293 5.60001C279.493 4.86667 279.659 4.13334 279.793 3.4C279.926 2.66667 280.226 2 280.693 1.4C281.359 0.666668 282.059 0.266669 282.793 0.200003C283.593 0.0666678 284.426 0 285.293 0C286.159 0.0666698 286.993 0.266671 287.793 0.600004C288.659 0.866671 289.493 1.16667 290.293 1.5C291.226 1.9 292.193 2.23334 293.193 2.5C294.193 2.7 295.159 3.06667 296.093 3.6C297.093 4.06667 297.993 4.66667 298.793 5.4C299.659 6.06667 300.493 6.76667 301.293 7.5C302.759 8.83334 304.126 10.2333 305.393 11.7C306.726 13.1 307.993 14.5667 309.193 16.1C310.459 17.6333 311.393 19.4 311.993 21.4C312.659 23.3333 313.293 25.2333 313.893 27.1C313.893 27.1667 313.893 27.2 313.893 27.2C314.159 28.2667 314.393 29.3333 314.593 30.4C314.859 31.4667 315.026 32.5333 315.093 33.6C315.226 34.8 315.293 35.9667 315.293 37.1C315.359 38.2333 315.426 39.3667 315.493 40.5C315.626 42.3 315.859 44.0667 316.193 45.8C316.593 47.4667 316.859 49.2 316.993 51C316.993 51.7333 316.959 52.5 316.893 53.3C316.826 54.0333 316.759 54.7667 316.693 55.5C316.626 55.9667 316.593 56.3333 316.593 56.6C316.459 57.8667 316.326 59.1333 316.193 60.4C316.126 61.6667 315.959 62.9333 315.693 64.2C315.093 67.2667 314.093 70.2333 312.693 73.1C312.226 74.1667 311.693 75.2 311.093 76.2C310.559 77.1333 309.993 78.1 309.393 79.1C309.393 79.1 309.393 79.1333 309.393 79.2C307.993 81.0667 306.693 83.0333 305.493 85.1C304.293 87.1667 302.859 89.0333 301.193 90.7C301.193 90.7 301.159 90.7 301.093 90.7C301.093 90.7667 301.093 90.8 301.093 90.8C298.293 92.9333 295.126 94.1333 291.593 94.4C291.259 94.4 290.926 94.4 290.593 94.4C290.326 94.4 290.059 94.4 289.793 94.4C289.393 94.4 288.993 94.4 288.593 94.4C288.193 94.4 287.793 94.4333 287.393 94.5C286.326 94.6333 285.293 94.8 284.293 95C283.359 95.2667 282.393 95.5 281.393 95.7C281.393 95.7 281.326 95.7 281.193 95.7C281.126 95.7 281.059 95.6667 280.993 95.6L278.693 94.9ZM279.293 93.8L281.293 94.5C282.293 94.3 283.259 94.0667 284.193 93.8C285.193 93.6 286.193 93.4333 287.193 93.3C287.593 93.2333 287.993 93.2 288.393 93.2C288.859 93.2 289.293 93.2 289.693 93.2C289.959 93.2 290.226 93.2 290.493 93.2C290.826 93.2 291.159 93.2 291.493 93.2C294.826 92.9333 297.759 91.8 300.293 89.8C301.959 88.2 303.359 86.3667 304.493 84.3C305.693 82.3 306.993 80.3667 308.393 78.5C308.926 77.5667 309.459 76.6 309.993 75.6C310.593 74.6 311.126 73.6 311.593 72.6C312.926 69.8 313.926 66.9 314.593 63.9C314.859 62.7 315.026 61.4667 315.093 60.2C315.159 58.9333 315.259 57.7 315.393 56.5C315.393 56.2333 315.426 55.8667 315.493 55.4C315.559 54.6667 315.626 53.9333 315.693 53.2C315.759 52.4667 315.793 51.7333 315.793 51C315.659 49.2667 315.393 47.5333 314.993 45.8C314.659 44.0667 314.426 42.3333 314.293 40.6C314.226 39.4667 314.159 38.3333 314.093 37.2C314.093 36.0667 314.059 34.9 313.993 33.7C313.859 32.6333 313.659 31.6 313.393 30.6C313.193 29.5333 312.959 28.5 312.693 27.5C312.159 25.6333 311.593 23.7667 310.993 21.9C310.393 20.0333 309.459 18.3333 308.193 16.8C307.059 15.3333 305.826 13.9 304.493 12.5C303.226 11.0333 301.893 9.66667 300.493 8.40001C299.759 7.66667 298.959 7 298.093 6.4C297.293 5.73334 296.459 5.13333 295.593 4.6C294.659 4.13334 293.693 3.8 292.693 3.6C291.693 3.33333 290.726 3 289.793 2.6C289.059 2.33334 288.326 2.06667 287.593 1.8C286.859 1.46667 286.059 1.26667 285.193 1.2C284.593 1.2 283.959 1.23334 283.293 1.3C282.626 1.36667 282.059 1.66667 281.593 2.2C281.193 2.66667 280.926 3.23334 280.793 3.9C280.726 4.56667 280.626 5.2 280.493 5.8C280.226 7 279.993 8.2 279.793 9.4C279.593 10.6 279.393 11.8 279.193 13C279.126 13.2667 279.026 13.5667 278.893 13.9C278.826 14.1667 278.759 14.4667 278.693 14.8C278.626 15.0667 278.526 15.3667 278.393 15.7C278.326 15.9667 278.293 16.2667 278.293 16.6C278.293 16.8667 278.293 17.1667 278.293 17.5C278.359 17.7667 278.459 18 278.593 18.2C278.793 18.4 279.026 18.5667 279.293 18.7C279.626 18.7667 279.926 18.8333 280.193 18.9C280.193 18.9 280.193 18.9333 280.193 19C280.593 19.2 280.926 19.3333 281.193 19.4C281.526 19.4 281.826 19.4 282.093 19.4C282.426 19.4 282.759 19.4333 283.093 19.5C283.426 19.5667 283.826 19.7667 284.293 20.1C285.893 20.8333 287.426 21.8333 288.893 23.1C290.426 24.3667 291.593 25.8 292.393 27.4C293.126 28.9333 293.526 30.5333 293.593 32.2C293.659 33.8667 293.859 35.5333 294.193 37.2C294.259 37.7333 294.359 38.2667 294.493 38.8C294.626 39.3333 294.759 39.8667 294.893 40.4C295.093 41.2 295.259 42.0333 295.393 42.9C295.593 43.7 295.693 44.5667 295.693 45.5C295.693 46.1667 295.626 46.8333 295.493 47.5C295.359 48.1 295.226 48.7333 295.093 49.4C294.759 50.9333 294.459 52.5 294.193 54.1C293.993 55.5667 293.859 57 293.793 58.4C293.793 59.8 293.693 61.2333 293.493 62.7C293.426 63.5667 293.259 64.4 292.993 65.2C292.726 66 292.426 66.8 292.093 67.6C291.626 68.5333 291.126 69.4333 290.593 70.3C290.126 71.1667 289.493 71.9333 288.693 72.6C288.359 72.8667 288.026 73.1333 287.693 73.4C287.359 73.6 286.993 73.8 286.593 74C285.859 74.4 285.093 74.7667 284.293 75.1C283.493 75.3667 282.726 75.6333 281.993 75.9C281.393 76.1 280.726 76.3 279.993 76.5C279.259 76.6333 278.693 76.9667 278.293 77.5C277.826 77.9667 277.526 78.5333 277.393 79.2C277.326 79.8667 277.293 80.5 277.293 81.1C277.226 81.9 277.259 82.7 277.393 83.5C277.526 84.3 277.693 85.1 277.893 85.9C278.026 86.3667 278.126 86.8333 278.193 87.3C278.326 87.8333 278.426 88.3333 278.493 88.8C278.493 89.1333 278.493 89.4333 278.493 89.7C278.559 90.0333 278.593 90.3667 278.593 90.7C278.593 90.8333 278.559 91.0667 278.493 91.4C278.493 91.8667 278.493 92.2 278.493 92.4C278.559 92.6667 278.659 92.9 278.793 93.1C278.993 93.3667 279.159 93.6 279.293 93.8Z" fill="white"/>
    <path d="M48.2 119.7H52.2V115.7H50.2V113.7H48.2V111.7H46.2V109.7H44.2V105.7H46.2V103.7H54.2V105.7H56.2V107.7H52.2V105.7H48.2V109.7H50.2V111.7H52.2V113.7H54.2V115.7H56.2V119.7H54.2V121.7H46.2V119.7H44.2V117.7H48.2V119.7ZM65 105.7H61V101.7H65V105.7ZM65 119.7H69V121.7H57V119.7H61V109.7H57V107.7H65V119.7ZM79.8 109.7H81.8V121.7H77.8V109.7H73.8V121.7H69.8V107.7H79.8V109.7ZM84.6 107.7H92.6V109.7H94.6V111.7H90.6V109.7H86.6V119.7H90.6V117.7H94.6V119.7H92.6V121.7H84.6V119.7H82.6V109.7H84.6V107.7ZM95.4 109.7H97.4V107.7H105.4V109.7H107.4V115.7H99.4V119.7H105.4V121.7H97.4V119.7H95.4V109.7ZM103.4 113.7V109.7H99.4V113.7H103.4ZM125 103.7V107.7H127V109.7H125V121.7H121V103.7H125ZM131 107.7V103.7H135V121.7H131V109.7H129V107.7H131ZM129 115.7H127V109.7H129V115.7ZM141.8 109.7H135.8V107.7H143.8V109.7H145.8V121.7H135.8V119.7H133.8V115.7H135.8V113.7H141.8V109.7ZM141.8 119.7V115.7H137.8V119.7H141.8ZM144.6 125.7H150.6V123.7H152.6V121.7H148.6V119.7H146.6V107.7H150.6V119.7H154.6V107.7H158.6V119.7H156.6V123.7H154.6V125.7H152.6V127.7H144.6V125.7ZM178.2 103.7H182.2V121.7H178.2V109.7H172.2V107.7H176.2V105.7H178.2V103.7ZM187 115.7H189V111.7H191V107.7H193V105.7H185V103.7H197V107.7H195V111.7H193V115.7H191V121.7H187V115.7ZM201.8 117.7H207.8V123.7H205.8V125.7H201.8V123.7H203.8V121.7H201.8V117.7ZM229.4 111.7H231.4V105.7H227.4V109.7H223.4V105.7H225.4V103.7H233.4V105.7H235.4V111.7H233.4V113.7H231.4V115.7H229.4V117.7H227.4V119.7H235.4V121.7H223.4V117.7H225.4V115.7H227.4V113.7H229.4V111.7ZM238.2 103.7H246.2V105.7H248.2V119.7H246.2V121.7H238.2V119.7H236.2V105.7H238.2V103.7ZM242.2 113.7V117.7H240.2V119.7H244.2V111.7H242.2V107.7H244.2V105.7H240.2V113.7H242.2ZM255 111.7H257V105.7H253V109.7H249V105.7H251V103.7H259V105.7H261V111.7H259V113.7H257V115.7H255V117.7H253V119.7H261V121.7H249V117.7H251V115.7H253V113.7H255V111.7ZM265.8 119.7H269.8V113.7H265.8V111.7H269.8V105.7H265.8V109.7H261.8V105.7H263.8V103.7H271.8V105.7H273.8V111.7H271.8V113.7H273.8V119.7H271.8V121.7H263.8V119.7H261.8V115.7H265.8V119.7Z" fill="white"/>
</svg>
