<svg width="220" height="69" viewBox="0 0 220 69" fill="none" xmlns="http://www.w3.org/2000/svg">
    <rect x="4" y="3" width="210" height="62" fill="#44EEE0"/>
    <path fill-rule="evenodd" clip-rule="evenodd" d="M220 0V69H0V65H216V0H220Z" fill="black"/>
    <path fill-rule="evenodd" clip-rule="evenodd" d="M216 2V65H2V59H210V2H216Z" fill="#11BBAD"/>
    <path fill-rule="evenodd" clip-rule="evenodd" d="M0 0H216V4H4V67H0V0Z" fill="white"/>
    <path d="M75.55 25.1809H72.05V39.1809H68.55V25.1809H65.05V23.4309H75.55V25.1809ZM76.25 28.6809H78V26.9309H85V28.6809H86.75V33.9309H79.75V37.4309H85V39.1809H78V37.4309H76.25V28.6809ZM83.25 32.1809V28.6809H79.75V32.1809H83.25ZM94.45 37.4309H97.95V39.1809H87.45V37.4309H90.95V25.1809H87.45V23.4309H94.45V37.4309ZM98.65 28.6809H100.4V26.9309H107.4V28.6809H109.15V33.9309H102.15V37.4309H107.4V39.1809H100.4V37.4309H98.65V28.6809ZM105.65 32.1809V28.6809H102.15V32.1809H105.65ZM111.6 37.4309H109.85V28.6809H111.6V26.9309H120.35V42.6809H118.6V44.4309H109.85V42.6809H116.85V39.1809H111.6V37.4309ZM116.85 37.4309V28.6809H113.35V37.4309H116.85ZM121.05 26.9309H124.55V30.4309H126.3V32.1809H124.55V39.1809H121.05V26.9309ZM131.55 26.9309V30.4309H126.3V28.6809H128.05V26.9309H131.55ZM139.25 28.6809H134V26.9309H141V28.6809H142.75V39.1809H134V37.4309H132.25V33.9309H134V32.1809H139.25V28.6809ZM139.25 37.4309V33.9309H135.75V37.4309H139.25ZM146.95 39.1809H143.45V26.9309H153.95V28.6809H155.7V39.1809H152.2V28.6809H150.45V37.4309H148.7V28.6809H146.95V39.1809Z" fill="white"/>
</svg>
