<svg width="220" height="69" viewBox="0 0 220 69" fill="none" xmlns="http://www.w3.org/2000/svg">
    <rect x="4" y="3" width="210" height="62" fill="#44EEE0"/>
    <path d="M0 67H218V0" stroke="black" stroke-width="4"/>
    <path d="M2 62H213V2" stroke="#11BBAD" stroke-width="6"/>
    <path d="M2 65V2H216" stroke="white" stroke-width="4"/>
    <path d="M57.4 26.1807H59.4V38.1807H51.4V36.1807H49.4V32.1807H51.4V30.1807H55.4V26.1807H47.4V40.1807H59.4V42.1807H45.4V40.1807H43.4V26.1807H45.4V24.1807H57.4V26.1807ZM55.4 36.1807V32.1807H53.4V36.1807H55.4ZM64.2 24.1807H68.2V42.1807H64.2V30.1807H58.2V28.1807H62.2V26.1807H64.2V24.1807ZM75 42.1807H71V24.1807H75V28.1807H77V30.1807H79V32.1807H81V24.1807H85V42.1807H81V36.1807H79V34.1807H77V32.1807H75V42.1807ZM85.8 34.1807H83.8V30.1807H85.8V28.1807H95.8V30.1807H87.8V34.1807H93.8V36.1807H95.8V40.1807H93.8V42.1807H83.8V40.1807H91.8V36.1807H85.8V34.1807ZM98.6 34.1807H96.6V30.1807H98.6V28.1807H108.6V30.1807H100.6V34.1807H106.6V36.1807H108.6V40.1807H106.6V42.1807H96.6V40.1807H104.6V36.1807H98.6V34.1807ZM117.4 28.1807H121.4V42.1807H111.4V40.1807H109.4V28.1807H113.4V40.1807H117.4V28.1807ZM126.2 24.1807H132.2V30.1807H130.2V32.1807H126.2V30.1807H128.2V28.1807H126.2V24.1807ZM137 34.1807H135V30.1807H137V28.1807H147V30.1807H139V34.1807H145V36.1807H147V40.1807H145V42.1807H135V40.1807H143V36.1807H137V34.1807ZM168.6 42.1807V36.1807H166.6V34.1807H164.6V30.1807H162.6V28.1807H160.6V24.1807H164.6V28.1807H166.6V30.1807H168.6V34.1807H170.6V36.1807H172.6V42.1807H168.6ZM170.6 30.1807H168.6V24.1807H172.6V28.1807H170.6V30.1807ZM162.6 34.1807H164.6V42.1807H160.6V36.1807H162.6V34.1807Z" fill="white"/>
</svg>
